<svg xmlns="http://www.w3.org/2000/svg" viewBox="0 0 764.5 539.9"><defs><style>.cls-1{fill:#9fcc3a;}</style></defs><title>emr-cogent-green</title><g id="Layer_1" data-name="Layer 1"><path class="cls-1" d="M117.7,684.5V657.3c0-16.9,10.4-27.3,30-27.3,17.1,0,25.5,6.6,29.1,19.3.5,1.1.1,1.4-.9,1.9l-2.1.7c-1,.2-1.4.2-1.9-.9-3.2-11-9.8-16.3-24.2-16.3-16.4,0-24.7,8.6-24.7,22.5v27.4c0,13.9,8.5,22.6,24.7,22.6s21.2-5.8,24.6-16.8c.3-1,.7-1.2,1.7-.9l2.2.8c1,.3,1.3.8,1,1.9-3.8,12.5-11.8,19.8-29.5,19.8C128.4,712,117.7,701.5,117.7,684.5Z" transform="translate(-117.7 -172)"/><path class="cls-1" d="M191.6,684.5V657.4c0-17,10.4-27.4,30-27.4s29.9,10.4,29.9,27.4v27.1c0,17-10.5,27.5-29.9,27.5S191.6,701.5,191.6,684.5Zm54.8-.1V657.5c0-14.2-8.7-22.8-24.8-22.8s-24.8,8.6-24.8,22.8v26.9c0,14.2,8.6,22.8,24.8,22.8S246.4,698.6,246.4,684.4Z" transform="translate(-117.7 -172)"/><path class="cls-1" d="M268.4,684.4V657.3c0-16.9,10.3-27.3,30-27.3,17.1,0,25.4,6.6,29.1,19.3.4,1.1.1,1.4-.9,1.9l-2.1.7c-1,.3-1.5.2-1.9-.9-3.2-11-9.9-16.3-24.2-16.3-16.6,0-24.8,8.6-24.8,22.5v27.2c0,14.2,8.5,22.8,24.8,22.8s24.7-8.6,24.7-22v-9.7H299.4c-1,0-1.4-.4-1.4-1.4v-2c0-1,.4-1.5,1.4-1.5h27.4c1.1,0,1.4.5,1.4,1.6v13c0,16.2-10.4,26.8-29.8,26.8S268.4,701.4,268.4,684.4Z" transform="translate(-117.7 -172)"/><path class="cls-1" d="M346.7,709V633c0-1.1.3-1.5,1.3-1.5h45.4c1,0,1.5.4,1.5,1.5v2c0,1-.5,1.3-1.5,1.3H351.8V668h36.8c1.1,0,1.4.4,1.4,1.4v2c0,1.1-.3,1.5-1.4,1.5H351.8v32.7H395c1,0,1.3.4,1.3,1.4v2c0,1.1-.3,1.4-1.3,1.4H348C347,710.4,346.7,710.1,346.7,709Z" transform="translate(-117.7 -172)"/><path class="cls-1" d="M413.4,709V633c0-1.1.4-1.5,1.4-1.5h2.3a2.2,2.2,0,0,1,1.6.8L457,687.1c4.1,5.9,7.4,12.1,10.1,15.7h.3c0-4.7-.7-12.2-.7-19.8V632.9c0-1,.3-1.4,1.3-1.4h2.2c1.1,0,1.5.4,1.5,1.5v76c0,1.1-.4,1.4-1.5,1.4H468a1.7,1.7,0,0,1-1.7-.9L427,653.3c-3.7-5.2-6.7-11.2-9-14.4h-.2c0,4.2.6,11.3.6,18.3V709c0,1.1-.3,1.4-1.4,1.4h-2.2C413.8,710.4,413.4,710.1,413.4,709Z" transform="translate(-117.7 -172)"/><path class="cls-1" d="M512,709V636.3H487c-1,0-1.3-.3-1.3-1.3v-2c0-1.1.3-1.5,1.3-1.5h55c1,0,1.3.4,1.3,1.5v2c0,1-.3,1.3-1.3,1.3H517.1V709c0,1.1-.3,1.4-1.5,1.4h-2.3C512.3,710.4,512,710.1,512,709Z" transform="translate(-117.7 -172)"/><path class="cls-1" d="M633.4,698.4H572.9V655.9H624c3.1,0,4.8-1.7,4.8-4.8v-2.9c0-3.1-1.8-4.8-4.8-4.8H572.9V602.5h58.2c3,0,4.8-1.8,4.8-4.7v-2.9c0-3-1.7-4.8-4.8-4.8H564.7c-1.7,0-4.6.6-4.6,4.8v111c0,4.2,2.9,4.8,4.6,4.8h68.7c1.7,0,4.6-.6,4.6-4.8V703A4.2,4.2,0,0,0,633.4,698.4Z" transform="translate(-117.7 -172)"/><path class="cls-1" d="M760.7,590.1h-3a5.7,5.7,0,0,0-5.4,3.3l-40.7,72.5-41.1-72.6h-.1a5.5,5.5,0,0,0-5.4-3.1h-2.7c-1.8,0-4.7.6-4.7,4.8v111c0,4.2,2.9,4.8,4.7,4.8h3.1c3.1,0,4.8-1.7,4.8-4.8V631.6c0-4.9-.1-9.8-.3-14.9,1.9,3.8,3.9,7.6,6.3,11.5l29.2,51.9c1.1,2,2.3,3.2,5.1,3.2h2.3a5.2,5.2,0,0,0,4.8-3l29-51.4c2.5-4.4,4.7-8.4,6.7-12.3-.3,4.9-.4,9.9-.4,15v74.3c0,3.1,1.7,4.8,4.8,4.8h3.1c3,0,4.7-1.7,4.7-4.8v-111C765.4,591.8,763.7,590.1,760.7,590.1Z" transform="translate(-117.7 -172)"/><path class="cls-1" d="M881.5,704.6l-18.3-35.9c-2.4-4.7-4.9-8.1-8.1-10.7,15.1-3.9,23.8-15.7,23.8-32.7,0-22-13.4-35.2-35.8-35.2H796.5c-1.7,0-4.6.6-4.6,4.8v111c0,4.2,2.9,4.8,4.6,4.8h3.6c1.7,0,4.6-.6,4.6-4.8V660.1h24.1c11.8,0,17.6,3.5,22.8,13.9l16.7,33.5h.1c1.5,2.7,3.3,3.1,6.4,3.1H878a4.2,4.2,0,0,0,3.9-2A4.1,4.1,0,0,0,881.5,704.6ZM804.7,602.5h37.8c14.9,0,23.1,8.1,23.1,22.8s-8.2,22.4-23.1,22.4H804.7Z" transform="translate(-117.7 -172)"/><path class="cls-1" d="M354.5,172s66.6,195,60.4,384.9c11.1-22.2,26.7-175.1.4-331.8,78.6,18.5,179.7,18.5,285.8-14.8C542,211.5,407.5,200.4,354.5,172Z" transform="translate(-117.7 -172)"/><path class="cls-1" d="M310.5,203.3s34.9,2.1,39,11.9S396,365.3,395.2,466C372.2,348.9,346.7,246.9,310.5,203.3Z" transform="translate(-117.7 -172)"/><path class="cls-1" d="M381,479.8s-14.8-140-64.8-241.8h-29S338.4,302.8,381,479.8Z" transform="translate(-117.7 -172)"/><rect class="cls-1" x="531.7" y="283.7" width="26.5" height="116.38" transform="translate(769.2 -375.1) rotate(90)"/><rect class="cls-1" x="531.7" y="283.7" width="26.5" height="116.38" transform="translate(972.2 511.8) rotate(180)"/></g></svg>