<?xml version="1.0" encoding="utf-8"?>
<!-- Generator: Adobe Illustrator 25.0.0, SVG Export Plug-In . SVG Version: 6.00 Build 0)  -->
<svg version="1.1"
	 id="svg60" xmlns:cc="http://creativecommons.org/ns#" xmlns:dc="http://purl.org/dc/elements/1.1/" xmlns:inkscape="http://www.inkscape.org/namespaces/inkscape" xmlns:rdf="http://www.w3.org/1999/02/22-rdf-syntax-ns#" xmlns:sodipodi="http://sodipodi.sourceforge.net/DTD/sodipodi-0.dtd" xmlns:svg="http://www.w3.org/2000/svg"
	 xmlns="http://www.w3.org/2000/svg" xmlns:xlink="http://www.w3.org/1999/xlink" x="0px" y="0px" viewBox="0 0 579 329.5"
	 style="enable-background:new 0 0 579 329.5;" xml:space="preserve">
<style type="text/css">
	.st0{fill-rule:evenodd;clip-rule:evenodd;fill:#808080;}
	.st1{font-family:'ArialMT';}
	.st2{font-size:10px;}
	.st3{fill:#7A7F80;}
</style>
<sodipodi:namedview  bordercolor="#666666" borderopacity="1.0" fit-margin-bottom="0" fit-margin-left="0" fit-margin-right="0" fit-margin-top="0" id="base" inkscape:current-layer="layer1" inkscape:cx="388.66698" inkscape:cy="188.24564" inkscape:document-units="mm" inkscape:pageopacity="0.0" inkscape:pageshadow="2" inkscape:window-height="705" inkscape:window-maximized="1" inkscape:window-width="1366" inkscape:window-x="-8" inkscape:window-y="-8" inkscape:zoom="1" pagecolor="#ffffff" showgrid="false">
	</sodipodi:namedview>
<g id="layer1" transform="translate(-2.9985294,-0.76123825)" inkscape:groupmode="layer" inkscape:label="Layer 1">
	<path id="path7" inkscape:connector-curvature="0" class="st0" d="M404.7,171.3c0,0.6-0.2,0.9-0.7,0.9c-0.6,0-0.7,0.2-0.7,1.4
		c0,1-0.2,1.4-0.6,1.6c-0.4,0.1-0.7,0.6-0.8,1.4c-0.3,1.9-3,3.8-3,2.1c0-0.3-0.4-0.5-1.1-0.6c-1.1-0.1-1.1-0.2-1-1.5l0.1-1.4
		l-1.7-0.2c-1.2-0.2-1.8-0.4-1.9-0.9c-0.2-0.6-0.5-0.6-2.3-0.5c-1.8,0.2-2.1,0.1-2.6-0.5s-0.5-0.6-0.5,0c0,0.4-0.4,0.7-1,0.8
		c-0.7,0.1-1.2,0.7-1.9,1.9c-0.7,1.3-1.1,1.7-1.7,1.6c-0.4,0-1.2,0-1.7,0.2c-1.1,0.3-2.3,0-2.3-0.7c0-0.6,0-0.6-1.7,0.1
		c-0.8,0.3-1.6,0.4-2,0.3c-0.3-0.1-1.1-0.2-1.7-0.2c-1.1,0.1-2.9-1.5-2.9-2.5c0-0.3-0.7-0.4-2.5-0.3c-2.8,0.1-5-0.3-5.4-0.9
		c-0.6-1-3.7,0.7-3.9,2.1c-0.1,0.7-0.5,1.6-0.8,2.1s-0.6,1.2-0.6,1.5c0,0.5-0.5,0.9-1.5,1.4c-2.6,1.3-3.4,2.3-3,3.9
		c0.3,1,0.2,1.5-0.2,2.3c-0.4,0.9-0.4,1.1,0,1.8c0.6,0.9-0.4,2.2-1.8,2.2c-0.6,0-0.9,0.2-1,0.8c-0.2,1-1.4,1.8-1.8,1.2
		c-0.1-0.2-0.5-0.3-0.9-0.3s-0.9-0.2-1.2-0.5c-0.7-0.7-2.6,0.3-2.6,1.4c0,0.4-0.3,1.5-0.7,2.3c-0.4,0.9-0.5,1.6-0.3,1.8
		c1,0.6-0.7,3.6-2.1,3.6c-0.4,0-0.6,0.3-0.6,0.6c0,0.4-0.6,1.2-1.3,1.8c-1.8,1.6-1.8,4.1-0.1,6.5c0.7,1,1,1.8,0.9,2.2s0,0.9,0.2,1.1
		c1,1.2,0.2,2.7-1.4,2.8c-1,0.1-1.6-0.1-1.8-0.3c-0.2-0.3-0.3-0.3-0.3,0s-0.6,0.4-1.9,0.4c-2.5,0-5.6-2.7-5.3-4.7
		c0.2-1.3-3.2-0.4-3.9,1c-0.5,1-0.9,1.5-1.5,1.6c-0.5,0.1-1.1,0.4-1.4,0.6c-0.4,0.4-1,0.5-2.5,0.3c-1.1-0.1-2.1,0-2.2,0.1
		c-0.1,0.2-0.6,0.3-1.2,0.3s-1,0.2-1,0.4c0,0.4,1.6,2,2,2c0.2,0,0.5,0.2,0.7,0.5c0.6,0.7,0.1,1.9-0.8,1.9c-1.5,0-2.3,1.1-1.9,2.6
		c0.4,1.3-0.3,2.5-1.2,2c-0.2-0.1-0.6,0.1-1,0.5c-1,1.1-3.1,1.4-3.8,0.4l-0.6-0.7l-1.5,0.8c-0.8,0.4-2,1.3-2.7,1.9
		c-0.9,0.8-1.5,1.1-2.2,1c-0.6,0-1.7,0.3-2.6,0.7c-0.8,0.4-1.7,0.7-2,0.7c-0.2,0-0.5,0.1-0.5,0.3c0,0.5-2.2,2.8-2.7,2.8
		c-0.2,0-0.4,0.4-0.4,0.8c0,1.3-2.1,3.5-2.9,3.1c-1.1-0.6-4.2-0.3-4.7,0.4c-0.4,0.5-0.8,0.6-2.6,0.5c-1.2-0.1-2.1,0-2.1,0.1
		s0.2,0.3,0.3,0.3c0.8,0,0.3,1.8-0.7,2.3s-1,0.7-0.8,2c0.3,1.7,0.3,1.7,1.1,1.2c0.9-0.5,2.7-0.5,3.5,0c0.9,0.5,3-1.4,3-2.6
		c0-1.1,1.5-3.1,2.4-3.2c0.5-0.1,1-0.3,1.2-0.4c1.2-1.2,4.2,0,3.8,1.5c-0.2,0.7-0.1,0.9,0.5,1.1c0.4,0.1,1,0.6,1.3,1.1
		s0.7,0.8,0.8,0.7c0.1-0.1,0.5,0.1,0.9,0.3c0.4,0.3,1,0.5,1.4,0.5c0.8,0,2.5,1.9,2.5,2.9c0,0.3,0.3,0.6,0.6,0.7
		c0.3,0.1,1,0.7,1.4,1.4c0.8,1.2,1.4,1.5,1.4,0.9c0-0.4,3.3-0.5,3.6,0c0.1,0.2,0.8,0.3,1.5,0.3c1.3,0,3.5,0.9,3.5,1.4
		c0,0.3,2.5,0.1,2.7-0.3c0.1-0.1,0.7-0.6,1.3-1c0.8-0.6,1.1-1,1.1-1.8c0-0.7,0.3-1.3,1-1.8c0.6-0.5,1-1.1,1-1.4
		c0-1.7,3.1-2.9,3.7-1.4c0.2,0.4,0.5,0.5,1.4,0.3c1-0.2,1.3-0.1,2,0.6c0.9,0.9,5.3,1,7.3,0.3c1.1-0.4,2.7-0.4,3.5,0
		c0.3,0.2,1.3,0.5,2,0.7c0.8,0.2,1.8,0.7,2.1,1.1c0.4,0.3,1.1,0.7,1.6,0.8s1.3,0.7,1.9,1.2c0.5,0.5,1.2,1,1.4,1
		c0.5,0,3.2,1.4,3.6,1.9c0.2,0.2,0.3,0.2,0.5-0.1c0.2-0.6,3.9-0.6,3.9,0c0,0.3,0.1,0.3,0.4,0c1.3-1.3,6.8,0.9,5.9,2.4
		c-0.1,0.2-0.1,0.3,0.1,0.3s0.6,0.6,1,1.2c0.4,0.7,1.2,1.8,1.8,2.5c0.6,0.7,1.1,1.4,1.1,1.5c0,0.2,0.5,0.3,1.2,0.3
		c0.6,0,1.3,0.1,1.4,0.3c0.1,0.2,0.8,0.4,1.6,0.5c0.8,0.1,1.8,0.5,2.3,0.8c0.7,0.5,1.1,0.5,2.1,0.2c1.2-0.4,2.6-0.1,3,0.6
		c0.1,0.2,0.6,0.3,1.1,0.2c0.9-0.2,3.6,1.2,3.6,2c0,0.2,0.4,0.3,1.1,0.2c1.3-0.2,2.8,0.6,2.5,1.3c-0.3,0.7,0.2,0.8,1.8,0.4
		c1.5-0.3,3,0.3,2.7,1.2c-0.6,1.7,7.5,2.5,9,0.9c0.4-0.4,0.7-0.5,0.7-0.3s0.2,0.3,0.3,0.1c0.2-0.1,0.3-0.3,0.2-0.4
		c-0.2-0.3,0.7-1.1,1.1-1.1c0.1,0,0.3-0.1,0.3-0.3c0-0.2,0.1-0.5,0.1-0.7c0.1-1.1,5.2-1.4,5.2-0.3c0,0.2,0.1,0.3,0.3,0.2
		c0.4-0.1,2.5,0.8,2.5,1.2c0,0.2,0.1,0.3,0.3,0.2c0.1,0,0.6,0.1,1.1,0.2c0.5,0.2,1,0.1,1.2-0.1c0.5-0.5,1.3-0.5,1.3,0.1
		c0,0.3,0.2,0.5,0.3,0.5c0.2,0,0.3,0.3,0.3,0.7c0,0.9,0.5,1.2,1,0.5c0.5-0.6,1.3-0.5,3.7,0.4c1.6,0.6,2.7,1.9,2.1,2.5
		c-0.3,0.3-0.3,0.4,0.2,0.4c0.3,0,1,0.9,1.7,2.3c0.6,1.3,1.3,2.4,1.5,2.5s0.2,0.4,0.1,0.6c-0.4,0.6,1.1,0.8,4.6,0.8
		c3.1,0,4.4,0.3,4,1c-0.1,0.2,0.1,0.2,0.5,0.1c0.8-0.2,4.2,1.3,5,2.3c0.3,0.4,0.8,0.7,1.1,0.7c0.3,0,1.2,0.7,2.1,1.6
		c1.6,1.6,1.6,1.6,2.1,0.9c0.8-1,3.1-2.2,4.4-2.2c2,0,2.5-3.7,0.8-5.3c-1-1-1.4-2.3-0.7-2.7c0.5-0.3,0.4-0.9-0.2-0.9
		c-0.3,0-0.5,0.2-0.5,0.3c0,0.2-0.4,0.3-0.8,0.3c-1.2,0-1.4-1.1-0.6-2.5c0.4-0.6,0.9-1.6,1.2-2.2c0.4-0.9,1.5-1.7,3.2-2.3
		c0,0-0.1-0.5-0.2-1c-0.2-0.6-0.3-0.8-0.3-0.5c0,0.4-0.2,0.3-0.7-0.2c-0.4-0.4-1.1-1-1.7-1.5s-1-1.1-1-1.3c0-0.3-0.2-0.4-0.7-0.3
		s-1-0.1-1.5-0.6l-0.8-0.8l-0.8,1c-0.4,0.5-0.9,0.9-1.1,0.8s-0.3,0-0.3,0.2s-0.3,0.4-0.7,0.4c-0.5,0-0.6-0.1-0.5-0.4
		c0.2-0.3,0.1-0.3-0.3-0.2c-0.4,0.2-0.7-0.1-1.1-1c-0.7-1.7-0.7-1.9,0.3-3s1-1.1,0.3-2.7c-0.9-2-0.7-5.1,0.5-7.6
		c0.5-1.2,1.2-2.7,1.5-3.4s1-1.5,1.4-1.8c0.5-0.3,1.5-1.1,2.2-1.8s2-1.9,2.9-2.7c1-0.9,1.6-1.8,1.6-2.2c0-0.7,1.3-2.3,1.9-2.3
		c0.1,0,0.7-0.4,1.2-1c1.2-1.2,3-2.1,4.7-2.4c1.2-0.2,2.8-1.3,2.8-1.9c0-0.2,0.5-0.8,1.2-1.4c1-0.9,1.2-1.4,1.4-3.1
		c0.1-1.1,0.3-2.2,0.5-2.4c0.6-0.8,0.9-4.7,0.3-4.7c-0.7,0-1.9-1.2-1.6-1.6c0.8-0.8,0.5-8.5-0.3-8.7c-0.4-0.1-1-0.4-1.2-0.8
		c-0.6-0.9-0.8-0.8-1.8,0.4c-0.5,0.6-1.2,1-1.7,1s-0.8,0.2-0.8,0.5s-0.5,0.6-1.5,0.7c-1.7,0.3-2.6-0.2-2.6-1.3
		c0-0.4-0.2-0.6-0.8-0.6c-0.4,0-1.1-0.3-1.4-0.7c-0.5-0.6-0.9-0.7-1.8-0.5c-1.4,0.3-2.5-0.4-2.5-1.6c0-0.9-0.1-0.9-2.4-1.1
		c-3.4-0.3-5.2-2.8-3.3-4.6c0.3-0.3,0.3-0.4,0-0.4s-0.4-0.6-0.4-1.8c0-1,0.2-2,0.4-2.2c0.3-0.3,0.3-0.4,0-0.4
		c-0.2,0-0.4-0.3-0.4-0.7c0-1.1-0.8-3.1-1.5-3.8c-0.8-0.8-0.9-0.8-0.9,0.4c0,0.6-0.1,1-0.3,1c-0.2,0-0.5,0.4-0.7,0.9
		c-0.3,0.5-0.7,0.9-1.1,1.1c-0.3,0.1-0.6,0.5-0.6,0.8c0,0.7-0.7,1-2.1,1c-1,0-1,0-1,1.9c0,1.1-0.2,1.9-0.4,2
		c-0.3,0.1-0.2,0.4,0.3,0.8c1.2,1.3,1.9,2.3,1.9,2.9c0,0.3,0.2,0.7,0.3,0.8c0.2,0.1,0.3,0.6,0.3,1.1s0.2,0.8,0.4,0.8
		c0.6,0,0.2,1.8-0.5,2.2c-0.4,0.2-1.1,0.8-1.5,1.3c-0.6,0.7-1.1,0.9-2.1,0.9c-0.7,0-1.4,0.2-1.5,0.4c-0.1,0.3-0.3,0.3-0.5,0.1
		c-0.5-0.6-2.5-1.2-3.4-1c-1.7,0.4-2.9-1.6-3-5.1c-0.1-2.8-0.1-3-1-3.9c-0.5-0.5-0.9-1.1-0.9-1.4c0-0.3-0.5-0.7-1.2-1
		c-1.5-0.6-2-1.6-1.7-3.2c0.2-1,0.1-1.3-0.5-1.9c-0.4-0.4-0.7-0.9-0.7-1.2s-0.2-0.5-0.5-0.5c-0.5,0-1.3-1.4-1.3-2.3
		c0-0.3-0.2-0.5-0.3-0.5c-0.2,0-0.3-0.3-0.3-0.7c0-0.5-0.2-0.7-0.8-0.7c-0.5,0-0.9-0.2-1-0.7c-0.2-0.6-0.4-0.7-1.1-0.5
		c-1.1,0.3-3.3-1.8-3.3-3.1c0-0.5-0.2-0.8-0.3-0.8c-0.2,0-0.3-0.3-0.3-0.7s-0.2-0.8-0.3-0.9c-0.5-0.3-0.4-1.8,0.1-2
		c0.3-0.1,0.2-0.4-0.3-0.8c-0.4-0.3-0.8-0.9-0.8-1.4c0-0.4-0.2-0.8-0.3-0.8c-0.5,0-0.4-1.3,0.1-1.5c0.3-0.1,0.2-0.4-0.2-0.9
		C405.1,170.2,404.7,170.2,404.7,171.3"/>
	<path id="path10" inkscape:connector-curvature="0" class="st0" d="M323.8,244.8c-0.1,0.3,0,1.1,0.2,1.8c0.4,1.6-0.2,2.6-1.4,2.3
		c-0.6-0.1-0.7-0.1-0.5,0.4c0.1,0.3,0,0.6-0.2,0.7c-0.3,0.1-0.3,0.2,0,0.4c0.2,0.1,0.6,0.4,0.9,0.6c0.4,0.4,2.7,0.8,5.2,1
		c1.1,0.1,2.6,2.1,2.6,3.4c0,0.3,0.2,0.6,0.3,0.6c0.5,0,2.1,2.5,2.1,3.3c0,0.4,0.3,0.9,0.7,1.1c1,0.6,0.7,4.2-0.3,4.2
		c-0.1,0-0.2,1.4-0.1,3.2c0.1,3.2-0.3,4.9-1.5,5.5c-0.7,0.4-0.6,3.1,0,2.9s2.9,0.7,3.5,1.4c0.4,0.5,0.6,0.5,1.6,0.1
		c1.5-0.5,2.6-0.5,2.8,0c0.2,0.6,2.6,0.5,3-0.1c0.5-0.9,4,0.6,3.7,1.5c-0.4,0.9,2.2,2.4,4.1,2.4s2.9,0.6,2.9,1.6
		c0,0.3,0.3,0.7,0.7,0.8c0.4,0.1,0.8,0.6,0.9,1.2c0.2,1.2,2.9,3.3,3.8,3s1.6,0.3,1.4,1.3c-0.2,1.2,0.2,1.4,1.1,0.4s2.7-1.2,3.4-0.3
		c0.3,0.4,0.6,0.4,1,0.1s1.1-0.3,2.1-0.1l1.5,0.3l-0.1,3c-0.1,3.7,0.7,4.8,3.7,4.8c0.9,0,1.9,0.3,2.2,0.5c0.9,0.8,4.7,0.8,5.5,0
		c0.4-0.3,1.2-0.8,1.8-1.1c0.6-0.3,1.3-0.8,1.5-1.3c0.4-0.9,3.3-1.2,4.1-0.4c0.3,0.3,0.6,0.1,1.4-0.5c0.5-0.5,1.1-0.9,1.4-0.9
		c0.2,0,0.6-0.3,0.9-0.6c0.3-0.3,1.1-0.9,1.9-1.2c1-0.4,1.5-0.9,1.5-1.3c0-1.2,0.9-1.6,2.5-1.1c1.3,0.4,1.5,0.4,2.1-0.3
		c0.9-1,2.1-0.8,2.7,0.6c0.4,0.8,0.8,1.1,1.3,1.1c2.6,0,4.8,2.4,4.7,5c-0.1,1.2,0,2.3,0.2,2.4c0.4,0.3,0.4,3.5,0,3.8
		c-0.2,0.2-0.2,0.4,0,0.7c0.2,0.3,0.3,0.6,0.2,0.7c-0.1,0.1,0,0.4,0.2,0.7c0.2,0.3,0.3,0.9,0.2,1.5c-0.2,0.9-0.1,1.1,1.2,1.9
		c0.8,0.5,1.5,1.1,1.6,1.4s0.3,0.4,0.5,0.3s0.7,0,1.1,0.3s1.3,0.6,2,0.8c0.7,0.1,1.4,0.5,1.8,0.7c0.6,0.5,3.1-0.5,3.1-1.2
		c0-0.1,0.7-0.5,1.6-0.9c1.2-0.5,1.5-0.7,1.4-1.2c-0.4-1.1,1-2.2,2.7-2.3c0.9,0,1.7-0.1,1.8-0.3c0.7-0.7,3.9,0.5,3.9,1.4
		c0,0.3,0.2,0.4,0.7,0.3c0.7-0.2,3.2,0.9,3.6,1.5c0.1,0.2,0.6,0.3,1,0.3s1,0.2,1.2,0.5c0.4,0.5,0.5,0.5,1,0c1-0.9,1.7-0.6,2.3,0.7
		l0.5,1.2l0.9-0.9c0.5-0.5,1.4-1,2-1.1c2-0.5,4.4-0.6,4.7-0.2c0.2,0.2,0.6,0.3,1,0c0.8-0.4,1.8-0.1,3.1,1c0.6,0.5,1.5,1.1,2.1,1.2
		c0.5,0.1,1.4,0.7,2,1.3c0.6,0.6,1.2,0.9,1.3,0.8c0.4-0.3,3.4,1.5,3.4,2c0,0.3,0.1,0.2,0.4,0c0.9-0.9,3-0.5,3.6,0.6
		c0.3,0.6,0.8,1,1,1c0.6,0,2.8,2.1,2.8,2.6c0,0.3,0.2,0.5,0.5,0.5s1.1,0.5,1.8,1c1,0.8,1.6,1,2.4,0.8c1.2-0.2,3.3,0.9,3.3,1.7
		c0,0.7,0.5,0.7,1.1-0.1c1.5-1.9,5.8-2.7,5.8-1.1c0,0.5,0.7,0.3,1.8-0.6c0.7-0.6,1.3-0.8,1.8-0.7c0.7,0.2,0.9,0,1.1-0.8
		c0.1-0.5,0.6-1.4,1-2c0.4-0.5,0.8-1.2,0.8-1.4c0-0.8,1.4-2.3,2.2-2.3c1.5,0,2.2-1.3,2.2-4c-0.1-1.8,0.1-2.6,0.5-3.2
		c0.3-0.5,0.7-1.4,0.8-2.2c0.1-0.7,0.3-1.5,0.4-1.8s-0.1-0.6-0.7-0.7c-0.5-0.1-0.9-0.3-0.9-0.5c0-0.1-0.7-0.5-1.5-0.7
		s-1.7-0.6-1.9-0.9c-0.5-0.6-1-0.6-1,0.1c0,1.8-2.7,3.7-4.1,2.9c-1.6-0.8-3.8-0.7-4.7,0.2c-0.9,0.9-2.5,1-3.1,0.2
		c-0.5-0.7-2-0.7-2.3,0s-1.1,0.9-1.9,0.5c-0.5-0.3-1-0.3-2,0.1c-2.5,0.8-6.5-1.2-6.5-3.3c0-0.5-0.4-1.2-0.9-1.6s-0.7-0.8-0.6-0.9
		c0.7-0.5,0.8-1.7,0.1-1.7c-1,0-2-1.3-1.5-1.8c0.7-0.7,0.5-3-0.2-3c-0.6,0-1.4-0.7-2.6-2.2c-0.5-0.7-1-0.9-2-0.9
		c-0.9,0-1.5-0.2-1.9-0.7c-0.3-0.4-0.9-0.7-1.2-0.7c-0.3,0-0.6-0.2-0.6-0.4c0-0.7-0.7,0.2-0.8,1c0,0.4-0.2,0.7-0.3,0.7
		c-0.1,0-0.3,0.2-0.3,0.4c0,0.3-0.7,0.4-2.1,0.5c-1.1,0-2.1-0.1-2.1-0.3c0-0.9-4.3-0.2-4.6,0.8c-0.2,0.7-1.5,0.6-2-0.1
		c-0.1-0.2-0.3-0.3-0.4-0.3c-0.7,0.1-0.9,0-0.9-0.5c0-0.3-0.2-0.5-0.5-0.5s-0.4-0.2-0.3-0.4c0.1-0.2,0-0.3-0.4-0.3
		c-1.1,0.1-1.3,0-2.3-0.9c-1.2-1-2.1-3.2-1.5-3.9c0.6-0.7,1.1-0.5,2.6,0.8c1.4,1.2,3.9,1.7,4.4,0.8c0.3-0.5-1.2-2-2-2
		c-0.3,0-0.8-0.2-1.1-0.5c-0.3-0.3-0.5-0.4-0.5-0.3s-0.3,0-0.7-0.4c-0.4-0.3-0.7-0.8-0.7-1.1c0-0.3-0.4-0.5-1-0.5s-1.4-0.4-2.1-1.1
		c-0.9-0.9-1.5-1.1-2.9-1.2c-0.9-0.1-1.8-0.1-1.9-0.2c-0.1,0-0.3,0-0.5,0c-2.2,0.5-3.9,0.2-4.3-0.7c-0.2-0.5-0.6-1-0.9-1
		c-0.6,0-2.3-2.1-2.3-2.9c0-0.3-0.1-0.6-0.3-0.6c-0.5,0-2.1-2.6-2.1-3.4c0-0.6-0.1-0.7-0.5-0.6c-0.3,0.1-0.5,0-0.5-0.1
		c0-0.2-0.3-0.3-0.7-0.3c-0.4,0-0.7-0.2-0.7-0.3c0-0.2-0.2-0.3-0.6-0.3s-0.5,0.2-0.3,0.8c0.2,0.9-1.2,1.8-1.4,1
		c-0.3-0.8-1.4-1.7-2.6-2.2c-0.7-0.3-1.3-0.6-1.3-0.7c0-0.2-0.2-0.3-0.5-0.3c-0.4,0-0.5-0.2-0.3-0.8c0.2-0.8,0.2-0.8-0.4-0.2
		c-0.6,0.5-0.7,0.6-1.1,0.1c-0.2-0.3-0.6-0.4-0.7-0.3c-0.2,0.1-0.3,0-0.4-0.2c-0.2-0.5-2.7-0.7-2.7-0.3c0,0.2-0.2,0.3-0.5,0.2
		c-0.3-0.1-0.7,0-0.9,0.3c-0.2,0.3-0.7,0.5-1.1,0.5c-0.5,0-0.6,0.2-0.4,0.9c0.2,0.7,0.1,0.9-0.3,0.9c-0.3,0-0.7,0.4-0.9,0.8
		c-0.4,1-1.7,1-2,0.1c-0.2-0.5-0.2-0.5-0.6,0c-0.6,0.9-3.8,0.8-4.4-0.1c-0.4-0.6-0.5-0.6-0.6,0.3c0,0.3-0.5,0.4-1.2,0.3
		c-1.5-0.1-2.5-1.3-2.2-2.4c0.2-0.7,0.1-0.8-0.3-0.4c-0.3,0.2-0.6,0.3-0.7,0.2c-0.1-0.1-0.4,0-0.5,0.2c-0.5,0.8-1.8,0.1-1.5-0.8
		c0.2-0.8,0.2-0.8-1.6-0.7c-1.5,0.1-1.8,0-2-0.5c-0.1-0.4-0.4-0.7-0.7-0.7c-0.3,0-1.2-0.4-2-0.9c-1.1-0.6-1.8-0.8-2.4-0.7
		c-0.5,0.1-0.9,0.1-0.9-0.1s-0.1-0.3-0.3-0.3c-0.1,0-0.6-0.1-1-0.3c-0.6-0.3-0.8-0.3-1.2,0.1c-0.6,0.8-1.7,0.6-2.6-0.3
		c-0.7-0.8-1-0.8-2.8-0.6c-1.9,0.2-2.1,0.1-2.5-0.5c-0.3-0.4-0.6-0.7-0.9-0.7c-0.2,0-0.7-0.4-1-0.9s-0.8-1.2-1-1.4
		c-0.5-0.5-0.6-1.1-0.1-1.1c0.2,0,0.3-0.2,0.3-0.3c0-0.2-0.4-0.3-0.8-0.3c-0.5,0-1-0.3-1.3-0.8c-0.2-0.4-0.6-0.9-0.9-1
		c-0.3-0.2-0.5-0.6-0.5-0.9c0-0.7-0.6-1.1-1.7-1.1c-0.4,0-0.9-0.3-1.3-0.6c-0.6-0.6-0.7-0.6-1.1,0c-0.5,0.7-2.1,0.8-3.7,0.3
		c-0.5-0.1-1.3-0.1-1.7,0.1c-1.3,0.5-2.7,0-3.1-1c-0.2-0.5-0.5-0.8-0.8-0.8c-0.7,0-2.8-2.3-2.5-2.7c0.3-0.5,0-0.5-0.9,0.1
		c-0.5,0.3-0.8,0.3-0.9,0.1s-0.7-0.6-1.3-0.8c-0.6-0.2-1.2-0.7-1.3-0.9c-0.1-0.4-0.4-0.4-1-0.2c-0.4,0.2-1.5,0.2-2.2,0
		c-1-0.2-1.6-0.1-2,0.2c-0.7,0.6-2.9,0.6-3.4,0.1c-0.3-0.3-0.6-0.3-0.8-0.1c-1,0.8-4.3-0.2-3.9-1.1c0.1-0.3,0-0.5-0.1-0.5
		c-0.2,0-0.3,0.2-0.3,0.3c0,0.2-0.4,0.3-0.8,0.3s-0.9-0.2-1.1-0.3C324.8,244.2,324,244.3,323.8,244.8"/>
	<path id="path15" inkscape:connector-curvature="0" class="st0" d="M474.4,192.1c-0.3,0.4-0.6,0.9-0.7,1.3
		c-0.2,1.1-5.1,1.7-5.1,0.6c0-0.5-0.8-1.5-1.2-1.5c-0.1,0-0.2,0.8-0.3,1.8c-0.1,1.6-0.2,1.8-0.9,1.9c-0.4,0.1-0.8,0.3-0.8,0.4
		c0,0.2-0.2,0.3-0.5,0.3s-0.6,0.5-0.7,1.1c-0.5,2.5-0.3,5.8,0.4,5.8c1.3,0,1.9,4.8,1.1,8c-0.4,1.4-0.1,2.4,0.5,2.4
		c0.7,0,1.3,2.2,1.1,3.9c-0.6,4.3-1.1,6.4-1.7,6.4c-0.2,0-0.2,0.4-0.1,1c0.3,1.5,0,2.2-1.4,2.8c-0.9,0.4-1.2,0.7-1.2,1.4
		c0,1.1-0.7,2-1.3,1.8c-0.2-0.1-0.4,0-0.4,0.2s-0.3,0.4-0.7,0.4c-0.4,0-0.7-0.1-0.7-0.3s-0.4-0.2-0.9-0.1c-0.5,0.1-0.8,0.3-0.7,0.5
		c0.1,0.2-0.1,0.3-0.5,0.3s-0.9,0.2-1.1,0.5c-0.5,0.6-1.2,0.7-1.5,0.1c-0.1-0.2-0.2-0.1-0.1,0.3c0,0.4-0.4,1.2-0.9,1.7
		c-0.5,0.6-0.9,1.4-0.9,1.8c0,0.7-1.6,2.2-2.3,2.2c-0.2,0-0.4,0.2-0.5,0.4c-0.1,0.3-0.2,0.3-0.2,0c0-0.2-0.2-0.4-0.4-0.4
		c-0.2,0-0.3,0.3-0.2,0.8c0.3,1.4-2.8,3.8-3.3,2.5c-0.1-0.2-0.2-0.1-0.2,0.3c0,0.4-0.3,0.8-0.6,0.9c-0.3,0.1-0.5,0.4-0.5,0.6
		c0.1,0.8-0.5,1.6-1.1,1.6c-0.5,0-0.6,0.1-0.4,0.4c0.3,0.4,0.3,1.1,0.1,1.7c0,0.1-0.1,0.4-0.1,0.5c-0.1,0.5-1,2-1.4,2.2
		c-0.2,0.2-0.1,0.3,0.2,0.3c0.5,0,0.6,0.3,0.6,1.7c0,1.3,0.1,1.7,0.6,1.9c0.7,0.2,0.9,2.3,0.3,2.3c-0.2,0-0.2,0.1-0.1,0.2
		c0.2,0.2,0,0.5-1,1.7c-0.3,0.3-0.3,0.6-0.1,0.7c0.2,0.1,0.7-0.2,1.1-0.7c0.9-1.1,2-1.1,3.2,0c0.5,0.5,1.2,0.8,1.4,0.7
		c0.3-0.1,0.5-0.1,0.5,0.1c0,0.1,0.4,0.4,1,0.6s1.2,0.8,1.5,1.5c0.3,0.6,0.8,1.2,1.1,1.3c0.3,0.1,0.6,0.3,0.6,0.5s0.3,0.2,0.8,0.1
		c0.9-0.2,1.2,1.3,0.4,2.4c-0.4,0.5-0.4,0.8-0.1,1.3s0.3,0.7,0,0.8c-0.2,0.1-0.4,0.4-0.4,0.6c0,0.3-0.2,0.4-0.5,0.3
		c-1.6-0.6-3,1-1.6,1.8c0.8,0.5,1.2,2.2,0.6,2.6c-0.4,0.2,0.6,2.6,1.3,3.1c0.4,0.3,0.2,4.5-0.2,4.2c-0.2-0.1-0.3,0.3-0.3,0.8
		c0,1.4-0.3,2.1-0.9,2.1c-0.3,0-0.5,0.2-0.5,0.4c0,0.3-0.5,0.3-1.5,0.2c-1.2-0.2-1.6-0.1-1.7,0.3c-0.1,0.3-0.4,0.5-0.9,0.3
		s-0.6-0.1-0.5,0.4c0.2,0.5,0.1,0.5-0.3,0.4c-0.5-0.2-0.6,0-0.6,1c0,0.7-0.2,1.2-0.4,1.2c-0.2,0-0.3,0.2-0.2,0.3
		c0.1,0.2,0.7,0.3,1.2,0.3s1,0.1,1.1,0.3c0.2,0.4,4.4,0,4.4-0.4c0-0.9,1.6-2.3,2.4-2.1c0.5,0.1,1,0.2,1.1,0.2c0.2,0,0.2,0.3,0.1,0.7
		c-0.1,0.4,0,0.7,0.1,0.7c0.2,0,0.3-0.2,0.3-0.3c0-0.4,1.3-0.5,1.5,0c0.1,0.2,0.7,0.4,1.2,0.5c0.7,0.1,1,0.4,1,0.9s0.2,0.7,0.7,0.7
		c0.4,0,1.2,0.6,1.9,1.4c0.9,0.9,1.6,1.4,2.2,1.4c0.5,0,1.1,0.3,1.3,0.7c0.2,0.4,0.3,0.7,0.2,0.7c-0.2,0-1.1,1.9-1.1,2.5
		c0,0.1,0.4,0.2,0.9,0.2s0.9,0.2,0.9,0.3c0,0.2,0.3,0.3,0.7,0.3c0.9,0,0.9,0.4-0.1,2.4c-0.5,1.1-0.6,1.6-0.3,1.7
		c0.5,0.2,1,0.7,1.9,1.9c0.8,1.1,3.1,1.3,3.8,0.4c0.4-0.6,2.6-0.4,2.6,0.2c0,0.7,1.6,0.3,1.8-0.4c0.2-0.6,0.4-0.7,1.3-0.5
		c2,0.4,2.8,0.3,3.4-0.5c0.7-0.9,1.5-0.9,2.1-0.1c0.7,0.9,3,0.8,4.4-0.2c0.6-0.4,1.3-0.8,1.6-0.8c0.4,0,0.5-0.3,0.5-1.1
		c0-2.9,2.2-3.1,2.9-0.2c0.1,0.5,0.5,0.9,0.7,0.9c0.9,0,2.2,0.8,2.2,1.3c0,0.3,0.2,0.4,0.5,0.3c1.4-0.5,2.2,0.1,2.2,1.9
		c0,1.3-0.1,1.7-0.6,1.7c-0.4,0-0.5,0.2-0.3,0.9c0.2,0.7,0,1.2-0.6,2c-0.8,1-0.8,1.3-0.7,3.4c0.1,1.6,0.1,2.3-0.2,2.3
		c-0.2,0-0.4,0.3-0.4,0.6c0,0.3-0.2,0.8-0.4,1c-0.3,0.3-0.3,0.5,0.2,0.6c1,0.4,1.6-0.3,2.1-2.1c0.5-2,0.9-2.3,3-2.3h1.6v1.2
		c0,0.7,0.2,1.2,0.3,1.2c0.5,0,0.4,0.9-0.1,1.1c-0.3,0.1-0.3,0.3,0,0.7c0.3,0.3,0.6,1.8,0.8,3.4c0.2,1.9,0.5,3,0.8,3.2
		s0.5,0.7,0.5,1c0,0.4,0.2,0.5,0.7,0.4c0.7-0.2,1.8,0.3,2.8,1.3c0.6,0.6,5.8,0.7,6.8,0.1c0.8-0.5,1.4,0.3,1.4,1.7v1.5l2.2,0.2
		c1.2,0.1,2.2,0.4,2.2,0.5c0,0.2,0.2,0.3,0.3,0.3c0.2,0,0.3-0.2,0.3-0.5s-0.2-0.5-0.3-0.5c-0.2,0-0.3-0.3-0.3-0.7
		c0-0.9,1.9-2.8,2.8-2.8c0.4,0,0.7-0.2,0.7-0.3c0-0.2,0.4-0.3,1-0.3c1.9,0,3.1-0.4,3.3-1.1c0.2-0.8,3-0.6,4,0.3
		c0.3,0.3,1.1,0.5,1.8,0.5c1.8,0,2.3,0.3,2.3,1.4c0,1.5,3.3,2.5,4,1.2c0.2-0.3,1-0.6,2-0.8c1.5-0.3,1.7-0.4,1.8-1.2
		c0.1-1.2,1.8-1.3,2.6-0.2c0.4,0.5,0.6,0.6,0.8,0.3c0.1-0.2,0.8-0.4,1.5-0.4c1.2,0,1.3-0.1,1.3-0.9c0-2.2,3.5-3.4,4.5-1.5
		c0.5,1,1,0.9,2.4-0.6c2.3-2.4,3.2-2.5,4.5-0.4c0.3,0.4,0.8,1.1,1.1,1.4s0.7,1.2,0.8,1.8c0.2,0.9,0.4,1.2,0.9,1.2
		c1.2,0,3.4,1.6,3.4,2.6s1.1,0.2,2-1.5c0.2-0.4,0.7-0.7,1.1-0.7c0.4,0,0.7-0.2,0.7-0.5s0.3-0.8,0.8-1.2c0.7-0.5,0.8-1,0.9-3.4
		c0.1-2.2,0.2-2.8,0.6-2.8c0.4,0,0.5-0.3,0.3-1c-0.3-1.4,0.4-3.4,1.2-3.4c0.5,0,0.6-0.3,0.6-1.2c0-0.8,0.3-1.6,0.9-2.4
		c0.5-0.7,0.9-1.5,0.9-1.9s0.2-0.8,0.4-1s0.4-1.3,0.4-2.5c0-1.7,0.2-2.2,0.7-2.5c0.3-0.2,0.6-0.6,0.6-0.8c0-0.2,0.2-0.5,0.4-0.6
		c0.3-0.1,0.3-0.2,0-0.5c-0.3-0.2-0.4-0.9-0.3-2.4c0.1-1.5,0-2.1-0.3-2.1c-0.7,0-1.3-2.3-1-4c0.2-1.3,0.1-1.6-0.5-1.9
		c-0.4-0.2-0.7-0.7-0.7-1.1s-0.2-0.7-0.7-0.7c-1,0-1.3-2.4-0.3-2.9c0.6-0.4,0.3-1.2-0.4-1.2c-0.6,0-0.7-0.2-0.7-1.7
		c0-1.8,0-1.8-1.8-2.2c-0.8-0.2-0.9-0.4-0.9-1.2c0-0.8-0.2-1-0.7-1c-0.4,0-0.7-0.2-0.7-0.3c0-0.2-0.3-0.3-0.7-0.3
		c-1.2,0-1.7-0.4-1.7-1.2c0-0.4-0.2-0.9-0.5-1s-0.5-0.4-0.5-0.7c0-0.3-0.2-0.5-0.3-0.5c-0.2,0-0.3-0.3-0.3-0.8c0-0.4-0.3-1-0.7-1.2
		c-0.7-0.4-1-2.1-0.3-2.1c0.2,0,0.3-0.2,0.3-0.5s0.3-0.7,0.7-0.9c0.8-0.6,1.2-4.7,0.5-5c-0.5-0.2-0.6-2.2-0.1-2.2
		c0.2,0,0.3-0.3,0.3-0.7c0-0.4,0.2-0.8,0.4-0.9s0.3-0.4,0.2-0.7c-0.4-1,0.5-3.9,1.2-3.9c0.5,0,0.6-0.2,0.5-0.6
		c-0.1-0.3,0-0.9,0.3-1.3c0.6-0.9,0.7-1.9,0-1.9c-1.1,0-1.3-3.4-0.2-4.2s1.3-3.4,0.3-3.9c-0.9-0.4-1.3-2.6-0.6-3.4
		c0.2-0.3,0.3-0.8,0.2-1.3s0-1,0.3-1.4c0.3-0.3,0.5-0.7,0.5-0.9s0.4-0.6,0.8-0.9c0.4-0.3,0.8-0.9,0.8-1.3c0-1.3,0.7-2.6,1.4-2.8
		c0.5-0.2,0.7-0.5,0.7-1.4c0-0.6,0.1-1.2,0.3-1.2s0.5-0.4,0.7-0.9s0.6-0.9,0.8-0.9c0.3,0,0.5-0.7,0.5-2.1c0-1.2,0.2-2.2,0.4-2.3
		s0.2-0.7,0.1-1.3c-0.1-0.9-0.1-1.3,0.3-1.6c0.3-0.2,0.6-0.6,0.7-1c0.1-0.3,0.4-0.6,0.7-0.6c0.8,0,1.2-3.4,0.4-4
		c-0.7-0.5-0.7-1.4,0-1.7c1.5-0.6,0.5-1.6-1.5-1.6c-5.6-0.1-5.4-0.1-5.5-0.9c-0.1-0.6-0.3-0.8-1.1-0.8c-0.6,0-1.3-0.2-1.7-0.4
		c-0.5-0.3-1-0.3-2,0c-2,0.6-2.8,0.5-2.8-0.2s-4.2-1.8-4.4-1.1c-0.4,1.1-3.8-0.4-3.8-1.7c0-0.4-0.2-0.7-0.3-0.7
		c-0.2,0-0.3,0.2-0.3,0.3c0,0.2-0.2,0.3-0.4,0.3s-0.7,0.4-1.2,0.8c-0.5,0.5-1.1,0.9-1.5,1.1c-0.4,0.1-0.7,0.5-0.7,0.9
		c0,1.3-0.8,3-1.5,3.2c-0.4,0.1-0.6,0.4-0.5,0.7c0.2,0.5-0.4,2.2-0.9,2.6c-0.2,0.1-1.7,0.2-3.4,0.3H544v-0.9c0-0.8-0.1-0.9-0.8-0.7
		c-0.4,0.1-0.9,0.2-1,0.2s-0.3,0.2-0.3,0.5c0,0.8-1.8,1.1-2.2,0.4c-0.2-0.3-0.6-0.9-1-1.2c-0.3-0.3-0.6-0.8-0.6-1.2
		c0-1-2.6-0.9-2.9,0.1c-0.2,0.6-0.4,0.7-1.7,0.5c-1-0.1-1.7-0.1-2,0.2c-1.7,1.5-2.2,1.7-2.6,1.6c-0.3-0.1-0.6-0.2-0.8-0.2
		s-0.4-0.3-0.5-0.7c-0.2-0.5-0.5-0.7-1.4-0.7c-0.8,0-1.2-0.2-1.2-0.5c0-0.8-1-0.6-1.4,0.3c-0.4,0.9-0.8,1-2.9,0.5
		c-3.3-0.8-5.6-0.7-7.2,0.3c-1.9,1.3-5.8,1.4-6.7,0.2c-0.4-0.4-1.1-0.8-1.8-0.9c-0.9-0.1-1.2-0.3-1.3-0.9c-0.1-0.4-0.3-0.8-0.4-0.8
		c-0.2,0-0.3-0.5-0.3-1c0-0.6-0.1-1.3-0.3-1.6c-0.7-1.4-1.4-3-1.4-3.4c0-0.3-0.6-0.5-1.6-0.7c-0.9-0.1-1.6-0.4-1.7-0.5
		c-0.1-0.2-1-0.2-2-0.1c-1.6,0.2-1.9,0.1-2.5-0.5c-0.3-0.4-0.9-0.7-1.2-0.7c-0.3,0-1.1-0.6-1.8-1.3c-2.7-2.8-3.2-3.2-3.9-3.2
		c-0.4,0-1.1,0.2-1.5,0.4c-0.8,0.4-3.2-0.2-3.8-0.9c-0.2-0.3-0.8-0.5-1.4-0.5c-1.3,0-1.4-0.3-1.6-3s-0.2-2.7-2.4-3
		C475.3,191.4,474.9,191.5,474.4,192.1"/>
	<path id="path25" inkscape:connector-curvature="0" class="st0" d="M65.9,17.6c0,0.6-2.5,2.8-2.8,2.3c-0.2-0.3-0.3-0.2-0.5,0.4
		c-0.1,0.5-0.6,1.3-1.1,1.9c-1,1.3-1,1.4-0.2,1.6c1.9,0.5,1,3.4-1.1,3.5c-0.5,0-0.8,0.3-0.8,0.6c0,0.8-2,2.4-3.1,2.4
		c-0.7,0-0.9,0.1-0.7,0.6c0.1,0.4-0.2,0.9-1.1,1.6c-1.1,0.9-1.3,1.2-1.4,2.5c-0.1,1.9-0.6,2.6-1.9,2.3c-0.7-0.2-1-0.1-1,0.3
		c0,0.6-1.8,2.3-2.4,2.3c-0.3,0-0.7,0.3-0.9,0.7s-0.7,0.7-1,0.7s-0.4-0.2-0.3-0.4c0.1-0.2-0.1-0.3-0.6-0.1c-0.5,0.1-1.2,0-1.6-0.2
		c-0.6-0.3-0.7-0.3-0.9,0.3c-0.1,0.4-0.7,1-1.2,1.4c-1.1,0.8-1.6,0.9-1.2,0.3c0.1-0.2,0.1-0.3-0.1-0.2c-0.2,0.1-0.2,0.8-0.1,1.5
		c0.2,1.4-0.2,3.2-0.7,3.2c-0.2,0-0.3,0.4-0.3,0.8c0,0.9-2,3-2.8,3c-0.4,0-0.6,0.4-0.8,1.5c-0.3,1.8-0.9,2.5-1.7,1.9
		c-0.4-0.3-0.7-0.3-1.6,0c-0.6,0.2-1.6,0.3-2.4,0.3c-1.3-0.2-1.4-0.1-1.9,1.2c-0.3,0.7-0.9,1.4-1.2,1.5c-0.6,0.2-1.2,2.9-0.6,2.9
		c0.2,0,0.2,0.3,0.1,0.7c-0.3,1,1.8,4.1,2.8,4.1c0.3,0,0.5,0.5,0.5,1.4c0,0.8-0.1,1.4-0.3,1.4c-0.2,0-0.2,0.2-0.1,0.5s0,0.6-0.4,0.7
		c-0.3,0.1-0.6,0.5-0.6,0.8c0,0.8-2.2,3.1-3,3.1c-0.5,0-0.6,0.3-0.5,1.7c0.1,1,0,1.7-0.2,1.7c-1,0-3.5,2.9-3.4,3.9
		c0,0.6,0,1.3-0.2,1.5c-0.3,0.5-2.6,0.5-2.6,0c0-0.2-0.2-0.3-0.3-0.3c-0.2,0-0.3,0.2-0.3,0.5s-0.2,0.5-0.4,0.5c-0.5,0,0,2.2,0.6,2.5
		c0.3,0.2,0.5,0.5,0.5,0.7s0.3,0.5,0.7,0.6c0.8,0.2,0.9,1.2,0.3,1.9C18.8,88.5,19,89,19.9,90c0.7,0.8,1.3,1.5,1.3,1.7
		s0.3,0.4,0.7,0.5c0.7,0.2,0.7,2-0.1,2.2c-0.2,0.1-0.2,0.3-0.1,0.5s-0.1,0.6-0.4,1s-0.5,0.9-0.4,1.1c0.1,0.3,0,1.1-0.3,1.8
		c-0.2,0.7-0.4,1.9-0.3,2.6c0.2,1.3-1,2.4-1.6,1.4c-0.3-0.5-1,0-1.1,0.8s0.3,2,0.8,2.3c0.7,0.5-0.1,2-1.2,2.3
		c-0.8,0.2-1.1,0.5-1.2,1c-0.1,0.9-1.1,1-2.5,0.1l-1.1-0.7l-1.2,1c-0.7,0.6-1.4,1-1.6,1c-0.2,0-0.5,0.5-0.6,1.2S8.6,113,8.4,113
		c-0.2,0-0.2,0.4-0.1,0.8c0.1,0.5,0,0.9-0.2,1.1c-0.2,0.1-0.3,0.4-0.1,0.6c0.4,0.6,0.3,3.8,0,4.3c-0.2,0.2-0.9,1-1.6,1.8
		c-0.7,0.7-1.3,1.5-1.3,1.7c0,0.5-1.4,3.2-1.9,3.5C3,127,3,127.1,3.3,127.1c0.2,0,0.4,0.3,0.4,0.7s0.2,0.7,0.3,0.7
		c0.2,0,0.3,0.5,0.3,1.2c0,1.1,0.1,1.2,1.4,1.6c1.5,0.4,2.1,0.8,2.4,1.7c0.1,0.3,0.2,0.3,0.2,0.1c0.1-1,3.1,1.2,3.1,2.2
		c0,0.3,0.2,0.5,0.5,0.5c0.8,0,3.3,1.4,3.6,2c0.2,0.3,0.4,0.4,0.4,0.2s0.2-0.4,0.5-0.4c0.7,0,2.4,1.9,2.2,2.5
		c-0.1,0.2,0.5,0.9,1.4,1.4c0.8,0.5,1.4,1.2,1.4,1.4c-0.1,0.2,0.4,0.9,1,1.6c0.6,0.7,1.1,1.5,1.1,1.8c0,0.9,0.8,1.4,2.3,1.4
		c0.8,0,1.6,0.2,1.7,0.3c0.1,0.2,0.4,0.2,0.9,0c1.7-0.9,4,0,3.7,1.4c-0.1,0.4,0,0.7,0.3,0.8s0.5,0.4,0.5,0.7s0.2,0.5,0.5,0.5
		s0.7,0.2,0.9,0.5c0.7,0.8,1.1,0.2,0.5-0.9c-0.6-1.2-0.7-2.8-0.1-3.3c0.3-0.3,0.2-0.6-0.2-1.3c-0.8-1.2,0.2-2.4,2.2-2.4
		c0.7,0,1.5-0.2,1.6-0.5c0.6-0.8,2-0.8,3.1,0.1c1,0.8,1,0.8,0.4,1.5s-0.3,1.5,0.6,1.5c0.2,0,0.6,0.2,0.8,0.5s0.7,0.4,1,0.3
		c1-0.3,3.9,1.1,3.6,1.8c-0.1,0.4,0,0.6,0.5,0.7c0.4,0.1,0.7,0.4,0.7,0.6c0,0.2,0.2,0.5,0.4,0.6c0.3,0.1,0.3,0.3,0,0.7
		c-0.5,0.7,3.3,2.1,4.2,1.6c0.6-0.4,1.9,1.1,2.2,2.5c0.1,0.6,0.4,1,0.8,1c0.3,0,0.7,0.2,0.7,0.4c0.1,0.2,0.8,0.4,1.7,0.4
		s1.7,0.2,1.8,0.3s0.7,0.3,1.2,0.3c0.8,0,1.5,0.6,1.9,1.7c0,0.1,0.2,0.5,0.3,0.9c0.3,0.8,1.5,1.3,2.6,1c0.5-0.1,1.1,0.1,1.9,0.7
		c1,0.8,1.3,0.8,2,0.4c1.2-0.7,2.6,0.6,2.4,2.3c-0.1,0.8,0,1.2,0.3,1.2s0.5-0.4,0.4-1c0-1.1,0.9-2.5,1.6-2.4
		c0.8,0.1,1.6-0.5,1.4-1.1c-0.2-0.7,1.6-2.4,2.6-2.4c0.5,0,0.7-0.2,0.6-0.7c-0.1-0.8,1.3-2.4,2.1-2.4c0.3,0,0.9-0.6,1.2-1.3
		c0.4-0.7,1.2-1.5,1.9-1.9c0.7-0.3,1.2-0.9,1.3-1.3c0.1-0.4,0.4-1,0.8-1.4s0.7-0.8,0.7-1s0.3-0.3,0.6-0.3c0.5,0,0.7-0.3,0.8-2
		c0.1-1.1,0.3-2,0.6-2.1c0.2-0.1,0.4-0.3,0.4-0.5s-0.2-0.3-0.5-0.2s-0.5,0.1-0.5-0.1s-0.3-0.6-0.7-1.1c-0.4-0.4-0.7-1-0.7-1.2
		s-0.3-0.7-0.6-1c-0.4-0.4-0.5-0.6-0.2-0.7c0.6-0.2,0.3-3.2-0.4-3.7c-0.4-0.3-0.5-0.8-0.4-1.5c0.1-0.6,0-1-0.1-0.9
		c-0.2,0.1-0.3-0.4-0.3-1c0-0.8-0.2-1.2-0.5-1.2c-0.7,0-2.3,0.7-2.3,1.1c0,0.2-0.6,0.3-1.3,0.3c-1.5,0-1.9-0.5-1.4-1.9
		c0.4-1.1-1.5-1.3-2.1-0.2c-0.5,1-1.6,0.6-3.6-1.2c-0.2-0.2-0.7-0.5-1-0.6s-0.8-0.7-1-1.3c-0.2-0.6-0.6-1-0.8-1
		c-0.6,0-2.5-2-2.5-2.6c0-0.3-0.3-0.7-0.7-0.9c-1.3-0.7,1.2-2.8,2.6-2.3c0.3,0.1,0.5,0.1,0.5-0.1c0-0.4,1.5-1.9,2-2
		c0.2,0,0.4,0.1,0.4,0.3s0.2,0.3,0.5,0.3s0.7,0.3,1,0.8c0.5,0.7,0.5,0.7,1.2,0.2c0.9-0.8,1.2-0.8,2.2,0.4c0.5,0.6,1.1,1,1.4,1
		s0.7,0.3,1,0.7c0.2,0.4,0.6,0.7,0.9,0.7s0.6,0.5,0.7,1.1c0.2,0.8,0.3,1,0.6,0.7c0.5-0.5,2-0.5,2-0.1c0,0.7,2.2,0.6,2.8,0
		c0.6-0.7,1.9-0.8,4.1-0.5c0.7,0.1,1.5,0.2,1.8,0.2s0.5,0.2,0.4,0.4c-0.1,0.2,0.1,0.3,0.5,0.3s0.9,0.3,1.1,0.6
		c0.3,0.4,0.4,0.5,0.6,0.2c0.1-0.2,0.4-0.4,0.7-0.4c0.3,0,0.5-0.1,0.5-0.3c0-0.2,0.3-0.2,0.7-0.1c0.4,0.1,0.7,0,0.7-0.2
		s0.2-0.4,0.5-0.4s0.5,0.2,0.5,0.4c0,0.2,0.2,0.3,0.4,0.1c1.2-0.7,3.6,2.4,2.5,3.2c-0.6,0.4-0.5,0.5,0.6,1.6
		c0.9,0.8,1.3,1.5,1.3,2.1c0,0.8,0.1,0.9,0.7,0.8c0.5-0.1,0.7,0,0.9,0.6c0.1,0.4,0.5,1,0.9,1.3c0.3,0.3,0.5,0.8,0.4,1.1
		s0.1,0.8,0.6,1.2c0.9,0.8,1.6,0.9,1.8,0.2c0.2-0.6-0.2-2.5-0.5-2.4c-0.7,0.2-1,0-1.4-1.1c-0.3-0.7-0.4-1.4-0.3-1.7
		s-0.1-0.9-0.5-1.4s-0.7-1.1-0.7-1.4s-0.2-0.6-0.5-0.7c-0.3-0.1-0.5-0.5-0.5-0.8c0-0.4-0.1-0.7-0.3-0.7c-0.5,0-2.1-1.8-2.1-2.5
		c0-0.3-0.4-0.9-0.9-1.2c-1.5-0.9-2.5-2.1-2.5-2.8c0-0.4-0.2-0.8-0.3-0.9c-0.6-0.4-0.4-2.7,0.4-3.6c0.4-0.4,0.6-1,0.6-1.2
		c-0.2-0.6,0.8-1.8,2-2.2c0.6-0.2,1.2-0.8,1.5-1.3c0.4-0.8,0.6-1,1.3-0.9c0.1,0,0.4-0.2,0.5-0.5c0.2-0.3,0.6-0.5,0.9-0.5
		c0.7,0,1.7-1.4,1.7-2.2c0-0.3-0.3-0.5-0.6-0.5c-1.1,0-2.5-0.8-2.7-1.6c-0.1-0.4-0.5-1-0.8-1.3c-0.8-0.7-0.6-3.1,0.3-3.9
		c0.3-0.3,0.4-0.4,0.1-0.2c-0.4,0.2-0.5-0.1-0.4-1.4c0-0.4-1.1-2.2-1.4-2.2c-0.2,0-0.3-0.2-0.3-0.5s0.1-0.5,0.3-0.5
		c0.1,0,0.5-0.5,0.8-1c0.3-0.6,0.7-1,0.9-1c0.8,0.1,1.1-0.1,1.1-0.7c0-0.4,0.2-0.7,0.4-0.7c0.2,0,0.5-0.4,0.7-0.9s0.5-0.9,0.7-0.9
		s0.8-0.5,1.4-1c0.8-0.9,1.3-1.1,3.2-1.3l2.3-0.3l0.7,1.1c0.4,0.6,0.7,1.5,0.7,1.9c0,0.8,0.2,0.9,1.4,0.9c0.8,0,1.7,0.1,2.1,0.2
		c0.9,0.3,3.9-2.7,3.6-3.6c-0.2-0.8,0.8-1.7,2.1-2c0.9-0.2,1-0.4,1.2-2c0.1-1,0.4-1.9,0.6-2.2c0.2-0.3,0.2-0.6,0-1
		c-0.5-1-1.2-3-1.2-3.3c0.1-0.4-0.4-0.3-0.8,0.1c-0.2,0.2-0.5,0.1-1-0.3c-0.8-0.9-0.5-1.3,1-1.6c1.1-0.2,1.2-0.3,1.2-1.3
		c0-0.6,0.1-1.8,0.2-2.7l0.2-1.6l-1.5-0.2c-0.8-0.1-1.5-0.4-1.6-0.6s-0.5-0.4-1-0.4c-1.2,0-2.6-1.3-2.6-2.5c0-0.6-0.2-1.2-0.5-1.4
		c-1-0.7-0.7-4,0.4-4c0.3,0,0.4-0.2,0.3-0.6c-0.2-0.7,0.4-2.5,1.1-2.9c0.3-0.2,0.4-0.8,0.2-1.8c-0.2-1.6,0.8-3.3,1.6-2.8
		c0.2,0.1,0.4-0.1,0.5-0.5s0.3-0.7,0.5-0.7c0.9,0,1.8-1.6,1.8-3.1c0-0.8,0.1-2.1,0.3-2.8c0.2-1.1,0.2-1.3-0.3-1.3
		c-0.3,0-0.9-0.3-1.2-0.7c-0.8-0.8-1.3-0.9-1.9-0.2c-1.1,1.3-2.8,0.9-3-0.8c-0.1-0.6-0.4-0.9-1.2-1.1c-0.6-0.2-1.4-0.5-1.8-0.7
		c-0.8-0.4-2.5,0.1-3.6,1c-0.4,0.3-1.5,0.5-3.2,0.6c-3,0.1-3.1,0.2-3.4,1.5c-0.5,2.3-5.3,1.6-5.3-0.9c0-0.3,0.2-0.5,0.3-0.5
		c0.2,0,0.3-0.3,0.3-0.7s-0.2-0.7-0.3-0.7c-0.6,0-0.4-1.9,0.3-2.6c0.9-0.8,0.9-1.4-0.1-1.9c-0.4-0.2-1.1-0.8-1.5-1.2
		c-0.7-0.8-4-0.6-4,0.3c0,0.2-0.2,0.3-0.5,0.3s-0.5-0.2-0.5-0.3c0-0.2-0.3-0.3-0.7-0.3c-0.7,0-1.5-0.7-1.9-1.5
		c-0.1-0.3-0.3-0.3-0.5,0.1c-0.3,0.5-0.5,0.5-1.9,0l-1.5-0.6l-1,1.1l-1,1.1l-3.2-0.1c-1.8,0-3.4-0.2-3.6-0.5
		c-0.2-0.2-0.7-0.4-1.1-0.4c-0.7,0-2.6-1.8-2.6-2.5c0-0.2-0.2-0.5-0.5-0.8c-0.5-0.5-0.5-1.6,0-2.9c0.2-0.4,0.1-0.6-0.3-0.6
		c-0.8,0-1.3-1.3-1.2-3c0.1-1,0-1.6-0.2-1.7c-0.9-0.3-2.1-3.2-1.6-3.6c0.3-0.2,0.4-0.3,0.1-0.3c-0.6,0-1.8-1.4-1.8-2.1
		c0-0.5-0.4-0.6-2.7-0.5C67.1,17.3,65.9,17.4,65.9,17.6"/>
	<path id="path26" inkscape:connector-curvature="0" class="st0" d="M186.8,131.9c0,0.6-0.2,1.1-0.3,1.1c-0.2,0-0.3,0.4-0.3,0.8
		c0,0.5-0.6,1.4-1.5,2.3c-1.8,1.8-1.9,1.9-0.6,2.2c0.8,0.2,1,0.5,1.4,1.8c0.9,3.9,1,3.5-1.4,6.1c-2.6,2.6-2.6,2.6-1.2,2.6
		c2.3,0,1.5,3.7-0.9,4.3c-0.5,0.1-1.4,0.7-2,1.4c-0.6,0.6-1.5,1.3-1.8,1.4c-0.4,0.1-0.7,0.5-0.8,0.8s-0.6,0.7-1.2,0.9
		c-0.5,0.1-1.1,0.4-1.2,0.6c-0.1,0.2-0.8,0.4-1.4,0.3c-1.4-0.1-1.8,0.3-2.3,2.3c-0.2,0.8-0.7,1.7-1,2.1c-0.3,0.3-0.7,1.1-0.9,1.7
		c-0.1,0.6-0.5,1.1-0.7,1.1c-0.7,0-0.6,0.6,0.3,1.8c1,1.3,1.1,3.9,0.2,4.6c-0.6,0.4-0.8,1.9-0.3,1.9c0.2,0,0.5,0.5,0.7,1.2
		s0.6,1.2,0.8,1.2s0.5,0.4,0.7,0.9s0.5,0.9,0.7,0.9c0.5,0,2,1.6,2,2.3c0,0.3-0.1,0.5-0.3,0.5c-0.1,0-0.5,0.5-0.8,1
		c-0.3,0.6-0.8,1-1.1,1c-0.4,0-0.5,0.4-0.5,1.3c0,1.8-0.3,2.4-1.1,2.4c-0.4,0-0.7-0.2-0.7-0.7c0-0.4-0.2-0.7-0.6-0.7
		c-0.6,0-1.6-0.6-2.9-1.8c-0.4-0.3-0.8-0.6-1-0.6s-0.5-0.3-0.8-0.6c-0.9-1.2-1.9-1.5-4.3-1.2c-2,0.2-2.6,0.1-3.9-0.5
		c-2-0.9-2.2-0.9-2.7,0c-0.4,0.8-1.5,0.9-2.1,0.2c-0.8-0.8-2.2-1-2.9-0.4c-0.4,0.3-0.9,0.5-1.3,0.5c-0.3,0-0.6,0.3-0.6,0.6
		c0,2.3-3.5,3.4-5.4,1.8c-0.6-0.6-1.3-1-1.5-1s-0.4-0.3-0.5-0.7c-0.3-0.9-1-0.9-2.3,0c-0.9,0.6-1.1,0.6-1.6,0.3
		c-0.3-0.3-1.3-0.5-2.3-0.6c-1.5-0.1-1.8-0.3-1.9-1c-0.1-0.4-0.3-0.8-0.4-0.8s-0.3-0.3-0.3-0.7c0-0.6-0.2-0.7-1.8-0.7
		c-1.5,0-1.8-0.1-1.9-0.7c-0.1-0.4-0.5-0.7-0.8-0.7s-0.8-0.2-1.1-0.5c-0.2-0.2-0.9-0.7-1.4-1.1c-1.1-0.7-1.2-2-0.3-3.5
		c0.9-1.3,0.9-1.5,0-1.5c-0.4,0-0.7-0.2-0.7-0.3c0-0.2-0.3-0.3-0.7-0.3c-0.4,0-1.1-0.5-1.6-1c-0.5-0.6-1.3-1-1.7-1
		c-0.9,0-2.4-1.1-4.2-3c-0.7-0.8-1.5-1.5-1.6-1.5s-0.8-0.5-1.4-1.2s-1.3-1.2-1.5-1.2s-0.6-0.3-0.9-0.7s-1-0.7-1.4-0.7
		s-1-0.3-1.2-0.6c-0.7-0.9-3.3-2.8-3.8-2.8c-0.6,0-2-1.5-2.6-2.8c-0.4-0.7-1-1.3-1.9-1.6c-0.8-0.3-1.5-0.7-1.7-0.9s-0.9-0.5-1.5-0.6
		s-1.4-0.5-1.7-1c-0.8-1-2.8-0.3-2.8,1c0,1-0.6,2-1.9,3.3c-0.6,0.6-1.2,1.4-1.5,1.8c-0.2,0.4-0.9,0.9-1.6,1.2
		c-0.8,0.3-1.2,0.7-1.4,1.3c-0.2,1-2.9,4.2-3.5,4.2c-0.2,0-0.5,0.4-0.8,0.9c-0.3,0.6-0.7,0.9-1.3,0.9c-0.6,0-0.9,0.2-0.9,0.7
		c0,0.4-0.2,0.7-0.5,0.8c-1.5,0.6-0.7,3.3,0.9,3.3c0.4,0,1,0.3,1.3,0.6c0.4,0.5,0.8,0.6,2.4,0.5c1.2-0.1,2.1,0,2.2,0.2
		s0.8,0.4,1.4,0.4c1.3,0,1.7,0.6,1.6,3c0,0.8,0.1,1.5,0.3,1.5c0.2,0,0.3,0.3,0.3,0.7s0.1,0.7,0.3,0.7c0.2,0,0.4,0.5,0.6,1.2
		c0.1,0.7,0.4,1.2,0.6,1.2c0.6,0,2.6,2.2,2.6,2.9c0,0.4,0.3,0.6,0.7,0.6c0.4,0,0.7,0.2,0.7,0.4s0.3,0.7,0.7,1
		c0.8,0.7,0.9,1.1,0.2,1.7c-0.3,0.3-0.6,1.2-0.7,2.1l-0.2,1.6h1.1c1.8-0.1,2.8-0.5,2.9-1.2c0.3-1.9,2.1-3.8,2.1-2.2
		c0,0.2,0.4,0.3,0.9,0.3s0.9-0.2,0.9-0.4c0-0.3,0.1-0.3,0.3-0.1c0.1,0.2,0.6,0.6,1,0.8c0.5,0.2,0.8,0.9,1,1.6c0.2,0.9,0.4,1.2,1,1.2
		c1.6,0,2.5,1.9,1.4,3.1c-0.6,0.7,0.3,1.7,1.4,1.7c0.2,0,0.6,0.4,0.8,0.9c0.3,0.6,0.7,0.9,1.4,0.9c0.5,0,1,0.2,1,0.3
		c0,0.2,0.4,0.5,0.9,0.7s0.9,0.7,1,1c0.1,0.4,0.7,0.7,1.5,0.8c0.9,0.2,1.4,0.5,1.9,1.2c0.6,1.1,1.4,1.3,1.8,0.6
		c0.2-0.3,0.2-0.3,0.4,0c0.1,0.2,0.6,0.4,1.2,0.4s1.1,0.2,1.4,0.7c0.2,0.4,0.6,0.7,1,0.7c1.2,0,2.5,0.9,3,2c0.3,0.6,0.7,1.1,0.9,1
		c0.9-0.2,3,1.4,3,2.3c0,0.3,0.3,0.5,0.6,0.5c1.3,0,2.7,1,3,2.1c0.2,1,1.2,1.5,1.2,0.6c0-0.3,0.1-0.3,0.3,0c0.5,0.8,3.2,1,3.2,0.2
		c0-1,0.8-2.5,1.4-2.6c0.3-0.1,0.8-0.7,1.1-1.4c0.6-1.4,2.3-1.8,2.9-0.7c0.3,0.5,0.4,0.5,0.9,0c0.8-0.8,3.5-0.8,3.7-0.1
		c0.1,0.3,0.5,0.5,0.8,0.5c0.9,0,1.6,0.7,2.3,2.1c0.6,1.3,1.3,1.7,3.1,1.7c0.6,0,1,0.2,1.1,0.7s0.5,0.7,1.3,0.6
		c0.6,0,1.1,0.1,1.3,0.3c0.1,0.2,0.6,0.5,1,0.8c0.4,0.2,0.8,0.6,0.8,0.9c0,0.3,0.2,0.5,0.5,0.5c1.2,0,2.9,1.4,2.9,2.5
		c0,0.4,0.3,0.6,0.9,0.6c0.8,0,2.9,1.7,2.9,2.4c0,0.2,0.3,0.4,0.7,0.4c0.9,0,2.8,1.6,2.8,2.4c0,0.4,0.2,0.7,0.7,0.7
		c1.1,0,2.2,0.7,2.8,1.7s1.3,1.4,1.3,0.7c0-0.2,0.8-0.3,1.7-0.3s1.7,0.2,1.7,0.3c0,0.2,0.2,0.3,0.5,0.3s0.5-0.2,0.5-0.3
		c0-0.2,0.9-0.3,2.1-0.3c1.4,0,2.6-0.2,3.5-0.7c1.6-0.8,2.4-0.9,2.9-0.3c0.3,0.3,0.4,0.3,0.4-0.1c0-1.3,5.3-1.8,5.7-0.5
		c0.1,0.4,0.4,0.9,0.7,1.1c0.2,0.2,0.4,0.7,0.3,1.1c-0.1,0.4,0.1,0.8,0.5,1.1c1,0.7,1.5,2.2,1,3.2c-0.3,0.6-0.3,1,0,1.5
		c0.5,0.9,0.5,2.3,0,3.1c-0.3,0.5-0.3,0.8,0,1.5c0.3,0.5,0.4,1.4,0.3,2.3l-0.2,1.4h1.5c1,0,1.6,0.2,1.7,0.5c0.3,0.7,1.1,0.7,1.4,0
		c0.3-0.7,2.7-0.7,3,0c0.1,0.3,0.4,0.5,0.7,0.5s0.6-0.2,0.7-0.5c0.1-0.3,0.7-0.5,1.7-0.5c1.1,0,1.5,0.1,1.5,0.5c0,0.3,0.3,0.5,1,0.5
		c0.9,0,2.5,1.4,2.9,2.5c0.1,0.2,0.9,0.4,2.1,0.4c1.3,0,2.1,0.2,2.6,0.6c0.6,0.6,0.7,0.6,1.2-0.1c0.6-0.8,2.6-0.9,3.2-0.3
		c0.3,0.3,0.8,0.2,1.9-0.3c1.8-0.9,2.2-0.9,2.4-0.2c0.1,0.3,0.6,0.5,1.4,0.5c0.8,0,1.2,0.2,1.2,0.5s0.2,0.7,0.5,0.9s0.5,0.7,0.5,1.1
		c0,0.5,0.3,0.6,1.4,0.6c1.5,0,2.4,0.7,2.4,1.8c0,0.4,0.3,0.8,0.7,0.9c0.7,0.2,1,1.1,0.3,1.1c-0.3,0-0.3,0.1,0,0.4
		c0.2,0.2,0.4,0.8,0.4,1.2c0,0.7,0.1,0.8,2,0.8c1.1,0,2.2,0.2,2.4,0.4c0.3,0.3,0.4,0.2,0.4-0.6c0-1.1,1.1-2.2,2.2-2.2
		c0.3,0,0.6-0.6,0.7-1.8c0.3-2.9,0.3-3.3-0.5-3.5c-1.1-0.3-0.8-3.1,0.3-3.3c0.4-0.1,0.8-0.3,0.8-0.4c0-0.6,3.2-0.4,3.6,0.3
		c0.4,0.5,0.5,0.5,1.3,0c1.1-0.7,1.9-0.7,2.8-0.1c0.5,0.4,1.2,0.4,2.7,0.3c1.4-0.1,2.2-0.1,2.5,0.2c0.4,0.3,0.7,0.3,1.5,0
		c1.2-0.5,2.7,0,3,1c0.2,0.5,0.5,0.7,1.5,0.6c0.7,0,1.3,0.1,1.4,0.4c0.1,0.2,0.3,0.4,0.6,0.4c0.3,0,0.7,0.4,1,0.9
		c0.4,0.6,0.8,0.8,1.2,0.7c0.8-0.3,3.1,0.8,3.1,1.4c0,0.3,0.4,0.5,1.1,0.5c1,0,3.1,1.6,3.1,2.4c0,0.2,0.3,0.3,0.7,0.3
		c0.4,0,0.9,0.3,1.1,0.7s0.8,0.7,1.2,0.7c0.5,0,0.8-0.2,0.8-0.7c0-0.4,0.2-0.7,0.3-0.7s0.3-0.4,0.3-0.9c0-0.6-0.2-0.9-0.6-0.9
		s-0.8-0.2-1.1-0.5c-0.3-0.4-0.3-0.5,0-0.5c0.2,0,0.4-0.4,0.4-0.8c0-0.4,0.3-1.1,0.7-1.6c0.6-0.6,0.6-0.9,0.3-1.1
		c-0.3-0.2-0.5-1.3-0.5-3.4c0-1.7-0.2-3.1-0.3-3.1c-0.1,0-0.7-0.5-1.3-1c-0.6-0.6-1.2-1-1.4-1c-0.2,0-0.3-0.6-0.3-1.3
		c0-1.2-0.1-1.3-1.3-1.6c-1.6-0.4-2.2-1.7-1.5-3c0.2-0.4,0.4-1.2,0.3-1.8l-0.1-1H266c-3.8,0-4-0.1-4.4-2.7c-0.2-1-0.4-2.1-0.4-2.4
		c-0.1-0.4,0.7-0.5,5.7-0.6c3.7-0.1,6-0.2,6.3-0.5c0.7-0.6,2.9-0.6,3.6,0c0.5,0.4,0.6,0.4,1,0c0.2-0.3,0.7-0.4,1.1-0.3
		c0.3,0.1,0.6,0,0.6-0.2s0.2-0.4,0.4-0.4c0.2,0,0.6-0.3,0.9-0.7c0.2-0.4,0.6-0.7,0.9-0.7c0.6,0,2.3-1.9,2.3-2.7
		c0-0.4,0.2-0.8,0.4-1.1c2-2-0.4-4.3-4.3-4.2c-1.6,0-2-0.1-2.3-0.6c-0.5-1-3-0.9-4.2,0c-0.8,0.7-2.6,0.7-2.6,0
		c0-0.1-0.7-0.4-1.6-0.7s-1.7-0.7-1.8-0.9c-0.2-0.5-1.1-0.6-1.1-0.1c0,0.2-0.2,0.3-0.5,0.3s-0.5-0.1-0.5-0.3s-0.6-0.5-1.4-0.7
		c-0.7-0.2-1.5-0.5-1.6-0.7c-0.3-0.4-1.5-0.4-1.5,0c0,0.2-0.6,0.5-1.4,0.7s-1.4,0.5-1.4,0.7s-0.2,0.3-0.5,0.3c-0.5,0-1-0.9-0.9-1.7
		c0.1-0.3-0.1-0.4-0.7-0.3c-0.4,0.1-1,0-1.3-0.2c-0.3-0.3-2.1-0.4-5.3-0.3c-4.3,0.1-4.8,0-4.8-0.5c0-0.3-0.3-0.8-0.6-1
		c-0.7-0.5-0.1-2.1,1-2.3c0.4-0.1,0.6-0.4,0.6-0.7c0-0.8,1.5-1.4,2.7-1.1c0.6,0.1,1.1,0.4,1.1,0.5c0,0.4,1.8,0.8,2,0.5
		c0.1-0.2,0.9-0.7,1.7-1.2c1.6-1,1.8-1.5,0.9-1.9c-1.2-0.5-2.1-1.5-1.8-2.1c1.6-3.3,1.6-3.2,1-3.5c-0.3-0.2-0.7-0.3-0.9-0.3
		s-0.5-0.2-0.6-0.5s-0.4-0.5-0.6-0.5c-0.2,0-0.8-0.3-1.2-0.7l-0.8-0.7l-0.8,0.7c-1,0.9-1.1,0.9-2-0.1s-1.3-1.1-1.8-0.3
		c-0.2,0.4-0.4,0.5-0.6,0.2c-0.1-0.2-0.6-0.6-1-0.8s-0.8-0.6-0.8-0.9c0-0.3-0.3-0.5-0.7-0.5s-0.8-0.3-0.9-0.6
		c-0.5-1.2-3.1-3.7-3.6-3.3c-1.3,1-6.6,0.5-6-0.5c0.1-0.1-0.2-0.5-0.6-0.8c-0.4-0.3-1.3-1-1.9-1.5c-0.6-0.5-1.1-1.1-1.1-1.4
		c0-1-4-1.6-4.8-0.7c-0.5,0.6-1.6,0.7-1.9,0.2c-0.1-0.2-0.7-0.3-1.2-0.3c-0.9,0-1-0.1-1-1.2c0-1.5-2.9-4.6-4.3-4.6
		c-0.5,0-1-0.2-1.1-0.5s-0.6-0.6-0.9-0.7c-0.3-0.1-0.7-0.5-0.8-0.9c-0.1-0.5-0.5-0.7-1.4-0.7c-0.7,0-1.1-0.1-1-0.3s0.1-0.3-0.1-0.3
		s-0.5-0.5-0.6-1.1c-0.3-0.9-0.5-1.1-1.3-1.2c-1-0.1-1-0.2-0.9-1.6c0.1-1.4,0.1-1.5-0.9-1.8c-1.6-0.4-2.2-2.3-0.8-2.6
		c0.5-0.1,0.7-0.5,0.7-1.5c0-1.1-0.1-1.4-0.7-1.5c-0.4-0.1-0.7-0.4-0.7-0.7c0-0.6,1.2-1.3,1.6-1c0.1,0.1,0.2,0.1,0-0.2
		s0-0.4,0.3-0.4c0.4,0,0.5-0.4,0.5-1.5c0-1.5,1.3-2.4,1.8-1.3c0.1,0.2,0.5,0.4,1.1,0.5c1,0.2,1.5-1.1,0.6-1.7
		c-0.8-0.5-0.4-2.2,0.6-2.6c0.6-0.2,0.8-0.5,0.7-0.9c-0.3-1.3,2.8-2.2,3.3-0.9c0.1,0.3,0.4,0.5,0.7,0.5s0.6-0.2,0.7-0.5
		c0.1-0.4,0.7-0.5,2.2-0.5c2,0,2,0,2.6-1.2c0.3-0.7,0.9-1.2,1.3-1.3c1.5-0.2,1.7-5.1,0.2-5.1c-0.4,0-0.7,0.2-0.7,0.3
		c0,0.6-1,0.4-1.2-0.3c-0.4-1.3-1.9-2.5-3.8-3.2c-1.1-0.4-2.1-0.8-2.2-1c-0.1-0.2-0.9-0.4-1.7-0.4c-1.4,0-2.6-0.4-3-0.9
		c-1.4-1.7-8.1-2.8-8.9-1.5c-0.1,0.2-0.7,0.4-1.3,0.6c-0.6,0.1-1.2,0.4-1.4,0.7c-0.5,0.9-1.4,0.8-2.2-0.2c-2.8-3.4-2.4-3.2-5.6-3.2
		H187L186.8,131.9"/>
	<path id="path28" inkscape:connector-curvature="0" class="st0" d="M281.2,92.7c-0.5,0.5-1.2,0.6-3.6,0.6c-2.1,0-3,0.1-3.1,0.4
		c-0.3,0.9-1.2,1.5-1.9,1.3c-0.4-0.1-1.1,0.1-1.7,0.7c-0.5,0.5-1.2,0.8-1.5,0.8c-0.6,0-0.6,0.7,0,0.9c0.3,0.1,0.5,0.5,0.5,0.8
		c0,1.1-3.5,1.3-4.2,0.2c-0.2-0.3-0.3-0.3-0.5,0c-0.1,0.2-1,0.7-1.9,1.1c-1.4,0.6-1.6,0.9-2,2.4c-0.3,1-0.6,1.7-0.9,1.7
		c-0.6,0-0.2,1.6,0.6,2.5c1,1-0.3,3.1-2.2,3.8c-0.3,0.1-0.6,0.4-0.6,0.6s-0.2,0.4-0.5,0.4c-0.6,0-0.7,1.6-0.5,5.8
		c0.1,2.1,0,2.3-0.7,2.6c-0.5,0.2-1,0.9-1.3,1.8c-0.3,1-0.6,1.5-1.1,1.5c-0.4,0-0.7,0.2-0.7,0.7c0,0.8-1.9,2.8-2.6,2.8
		c-0.3,0-0.5,0.3-0.5,0.7c0,0.4-0.5,1.2-1.1,1.8c-1,0.9-1,1.1-0.5,1.4c0.7,0.5,0.7,1.9,0,1.9c-1.3,0-2,0.7-1.4,1.4
		c1.1,1.3,0.6,3.3-0.9,3.2c-1-0.1-1.3,0.1-1.4,0.6c-0.1,0.5-0.6,0.7-2.2,0.9c-1.7,0.2-2.2,0.4-3.2,1.5c-1.2,1.3-2.1,1.5-5.9,1.5
		c-0.6,0-0.9,0.2-0.9,0.5c0,0.7-1.3,0.6-2.4-0.3c-0.9-0.6-1.1-0.7-1.7-0.3c-1,0.7-1.7,0.5-2.7-0.7c-1-1.1-2.1-1.2-2.1,0
		c0,0.3-0.2,0.8-0.4,1c-0.3,0.3-0.3,0.4,0.1,0.4c1.4,0,0.7,3.9-0.7,4.1c-0.4,0.1-0.7,0.3-0.7,0.6s-0.1,0.5-0.3,0.5s-0.4,0.4-0.4,0.9
		c-0.1,0.8-0.3,0.9-1,0.9c-0.5-0.1-1.1,0.1-1.3,0.4c-0.6,0.7-2.2,0.7-3.2,0c-0.8-0.5-1.9-0.4-1.9,0.2c0,0.2-0.7,0.3-1.5,0.3h-1.5
		v2.4c0,1.8,0.1,2.5,0.5,2.6c0.6,0.2,0.7,1,0.2,1.3c-0.4,0.2-3.3-0.5-3.6-0.9c-0.3-0.5-1.3,0.6-1.7,1.9c-0.5,1.7-0.4,2.8,0.3,3.6
		c0.6,0.7,0.6,0.7-0.5,1.3c-1.3,0.6-1.5,1.4-0.5,1.7c0.4,0.1,0.7,0.4,0.7,0.8c0,1.4,4.4,6.7,5.6,6.7c0.3,0,0.9,0.4,1.3,0.9
		c0.4,0.5,1,0.9,1.2,0.9c1,0,2.5,1.2,4.2,3.5c1.6,2.1,2.1,2.4,2.9,2.2c2-0.7,5-0.6,5,0.2c0,0.5,0.2,0.7,0.6,0.7
		c0.8,0,2.8,2.1,2.8,2.9c0,0.3,0.2,0.6,0.5,0.6s1.1,0.4,1.7,0.9l1.2,0.9l1.4-0.7c1.7-0.9,2.7-0.9,2.9-0.1c0.1,0.4,0.5,0.7,0.8,0.7
		c0.7,0,3.1,2.3,3.1,3c0,0.3,0.2,0.5,0.5,0.5s0.7,0.3,1.1,0.7c0.4,0.5,1.1,0.7,2,0.7c0.8,0,1.6,0.2,1.8,0.4c0.3,0.3,0.4,0.3,0.6,0
		c0.3-0.4,2.6-0.5,2.6-0.1c0,0.2,0.4,0.5,0.9,0.7c0.5,0.3,0.9,0.7,0.9,1.1c0,0.5,0.3,0.6,1,0.6c1.7,0,2.5,1.8,1.1,2.7
		c-0.9,0.6-0.9,1.7,0.2,2.6c0.5,0.4,0.9,1,0.9,1.2s0.3,0.4,0.7,0.4c2,0,0.1,2.8-2.1,3.2c-0.7,0.1-1.3,0.4-1.4,0.5
		c-0.3,0.8-2.4,0.8-2.6,0c-0.2-0.7-0.4-0.7-1.6-0.6c-0.8,0.1-1.8,0.2-2.2,0.2c-0.6,0-0.8,0.2-0.8,1.1c0,1.6,0.6,1.9,2.6,1.8
		c1.2-0.1,2,0,2.4,0.4c0.6,0.5,0.8,0.4,1.8-0.7c1.1-1.2,2.2-1.3,2.2-0.3c0,0.5,0.7,0.9,1.6,0.9c0.3,0,0.8,0.3,1.2,0.7
		c0.5,0.6,0.8,0.7,1.6,0.5c0.5-0.1,1.1-0.2,1.4-0.2c0.2,0,0.6-0.2,0.9-0.6c0.5-0.8,1.8-0.6,2.1,0.2c0.1,0.3,0.4,0.5,0.7,0.5
		c0.3,0,0.7,0.2,0.9,0.5c0.3,0.3,0.6,0.4,0.8,0.2c0.4-0.3,1.6-0.5,2.5-0.4c0.2,0,0.5,0.4,0.6,0.8c0.1,0.4,0.4,0.6,0.7,0.5
		c0.5-0.2,2.2,0.5,2.2,0.9c0,0.5,1.7,0.2,1.9-0.3c0.3-0.7,4.1-0.4,4.9,0.4c0.3,0.3,0.7,0.5,1,0.5s0.7,0.2,1,0.5
		c0.5,0.5,0.6,0.5,1.1,0c0.7-0.7,2-0.7,2.5,0c0.2,0.3,0.9,0.5,1.5,0.6c1.3,0.1,1.4,2.2,0.2,3.4c-0.5,0.5-0.6,0.9-0.5,1.6
		c0.3,1.3-0.4,2.8-1.1,2.8c-0.3,0-1.3,0.7-2.1,1.5c-0.8,0.8-1.8,1.5-2.1,1.5c-0.3,0-0.7,0.3-1,0.7c-0.5,0.8-2.9,1-3.4,0.3
		c-0.1-0.2-0.6-0.3-1-0.1c-0.4,0.1-3.1,0.3-6,0.4c-6,0.1-5.7,0-5.4,1.9l0.2,1.4l1.8-0.2c1.3-0.2,2-0.1,2.4,0.3
		c0.6,0.4,0.8,0.4,1.4,0c0.8-0.5,2.5-0.3,2.6,0.3c0.1,1-0.1,1.8-0.6,2.2c-1.1,0.9-0.5,3.4,0.9,3.4c1.1,0,1.2,0.1,1.3,1.2
		c0.1,0.9,0.5,1.6,1.5,2.5c1.1,1.1,1.3,1.4,1,1.8c-0.2,0.3-0.3,0.5-0.1,0.5c0.6,0,1.2,2,1.1,3.7l-0.1,1.7l1.3,0.1
		c1,0.1,1.3,0,1.3-0.4c0-0.3,0.1-0.7,0.1-1c0.1-0.3,0.1-0.3,0-0.2c-0.3,0.5-0.8,0.3-0.8-0.3c0-0.3,0.2-0.5,0.3-0.5
		c0.6,0,0.3-1.3-0.4-1.7c-0.6-0.3-0.7-0.6-0.5-1.6c0.3-1.9,0.8-2.1,4.8-1.9c3.3,0.1,3.6,0.1,3.8-0.5c0.2-0.6,0.5-0.7,2.8-0.7
		s2.6-0.1,3.4-0.9l0.9-0.9v1c0,0.5,0.1,0.9,0.2,0.8c0.1-0.1,0.2-0.8,0.2-1.5c0-1.9,2-4,2.7-2.9c0.1,0.2,0.4-0.2,0.6-1
		c0.4-1.3,0.5-1.4,2.8-1.9c1.3-0.3,2.5-0.7,2.6-0.9s0.5-0.3,0.8-0.3c0.4,0,1.2-0.5,1.8-1c0.6-0.6,1.3-1,1.5-1s0.4-0.2,0.5-0.5
		c0.3-0.7,2.3-0.7,3.2,0c0.8,0.6,1.9,0.7,1.9,0.2c0-0.2,0.2-0.3,0.4-0.3c0.3,0,0.4-0.5,0.4-1.4c0-1.1,0.2-1.5,0.8-1.9
		c0.9-0.6,1-1.4,0.2-1.7c-0.4-0.1-0.5-0.8-0.5-2.4c0-1.7,0.1-2.2,0.5-2.2c0.3,0,0.5-0.1,0.5-0.3s1.7-0.4,3.8-0.5
		c4.6-0.3,4.6-0.3,5.1-1.8c0.3-0.7,0.6-1.2,0.7-1.2s0.4-0.3,0.5-0.7c0.3-1,3.9-1,4.5,0c0.2,0.4,0.3,0.7,0.2,0.8
		c-0.1,0.1,0,0.1,0.2,0c0.6-0.1,1.2,0.6,2.1,2.5c0.7,1.4,3.5,2.2,5.9,1.6c0.8-0.2,0.9-1.6,0.2-2.1c-0.2-0.2-0.7-0.7-0.9-1.3
		c-0.3-0.6-0.6-1.1-0.8-1.2c-0.6-0.5-0.7-5.4-0.1-5.7c0.3-0.1,0.6-0.4,0.6-0.6c0-0.5,2.6-3,3.1-3c0.2,0,0.4-0.2,0.4-0.5
		s0.3-0.6,0.6-0.8c0.4-0.2,0.6-0.8,0.7-2c0.1-2.1,0.5-3.9,0.8-3.9c0.2,0,0.5-0.7,0.7-1.5c0.7-2.3,2.5-3.2,3.7-1.8
		c0.7,0.8,2.3,0.7,2.5-0.3c0.1-0.5,0.6-0.9,1.2-1.2c1-0.4,1.5-1.5,0.7-1.5c-0.2,0-0.3-0.5-0.3-1.2s0.2-1.2,0.3-1.2
		c0.2,0,0.3-0.6,0.3-1.4c0-1.4,2.4-4.3,4.2-4.9c0.4-0.1,0.8-0.7,0.9-1.3s0.3-1,0.5-1c0.1,0,0.3-0.4,0.4-1c0.3-1.3,2.8-3.9,3.8-3.9
		c0.7,0,0.8-0.2,1-1.5c0.1-0.8,0.5-1.7,0.8-2.1c0.4-0.4,0.4-0.7,0.2-0.9c-2.2-1.3-0.7-7.3,1.8-7.3c0.3,0,0.5-0.3,0.5-0.9
		c0-1,0.7-2.1,1.3-2.1c0.2,0,0.4-0.6,0.4-1.4c0-0.8,0.2-1.4,0.3-1.4c0.5,0,0.4-1-0.2-1.2c-0.3-0.1-0.5-0.6-0.5-1
		c0-0.5,0.2-0.9,0.5-1c0.8-0.3,0.6-0.7-0.9-1.7c-0.8-0.5-1.4-1.2-1.4-1.4s-0.2-0.4-0.4-0.4c-0.2,0-0.6-0.3-0.8-0.6
		c-0.3-0.4-0.9-0.6-2-0.6s-1.7,0.2-2,0.6c-0.2,0.3-0.8,0.6-1.2,0.6c-0.5,0-0.7,0.2-0.7,0.8c0,0.9-1.6,2.7-2.5,2.7
		c-0.4,0-0.6,0.3-0.6,0.8c0,1.7-2.7,3.1-3.2,1.7c-0.2-0.4-0.3-0.5-0.6-0.2c-0.2,0.2-1.2,0.4-2.2,0.4c-1.4,0-2,0.2-2.5,0.7
		c-0.7,0.7-1.7,0.9-1.7,0.4c0-0.2-0.4-0.4-0.9-0.5c-0.6-0.1-0.9-0.5-0.9-0.9c0-0.5-0.2-0.7-0.6-0.6c-1,0.2-3.5-0.8-3.5-1.3
		c0-0.3-0.2-0.4-0.7-0.3c-1,0.3-3.8-0.5-3.8-1.1c0-0.3-0.2-0.5-0.4-0.4c-1.2,0.2-1.4,0-1.1-1.6c0.2-1.5,0.2-1.5-0.7-1.5
		c-0.5,0-1-0.2-1.1-0.6c-0.1-0.3-0.4-0.7-0.5-0.8c-0.2-0.1-0.3-0.6-0.3-1.1c0-0.8-0.2-1-2.2-2c-0.6-0.3-1.1-0.7-1.3-0.9
		c-0.2-0.2-0.3-0.2-0.5,0.1c-0.2,0.6-3.8,0.6-4,0c-0.2-0.3-0.2-0.3-0.4,0c-0.5,1-3.8,0.5-4.2-0.6c-0.2-0.6-0.6-1-0.9-1
		c-1,0-2.3-1.6-2.1-2.7c0.2-0.8-0.1-1.2-1.4-2.6c-0.9-0.9-1.5-1.8-1.5-1.9c0-0.4-2.2-1.1-3.7-1.1c-0.8,0-1.4-0.2-1.4-0.3
		s-0.3-0.3-0.7-0.3c-0.4,0-0.8-0.3-0.9-0.7s-0.4-0.7-0.8-0.7c-0.3,0-0.7-0.2-0.9-0.4c-0.4-0.4-1.5-0.4-3.4-0.3
		c-1.1,0.1-1.4-1.7-0.4-2.7c0.2-0.2,0.4-1.2,0.4-2.2s0.2-2.1,0.6-2.6c1.1-1.6,0.8-4.7-0.4-4.7c-0.6,0-1.1-0.2-1.2-0.4
		c-0.1-0.3-0.3-0.3-0.5,0.1c-1,1.4-2-3.5-1-5.1c0.3-0.5,0.2-0.8-0.8-1.8c-1.8-2-1.8-6.8,0.1-6.8c0.5,0,0.6-0.2,0.5-0.9
		c-0.1-0.9-0.2-0.9-2.3-0.9c-2.2,0-2.2,0-2.3-0.9c-0.1-0.5-0.3-0.9-0.5-1c-0.2,0-0.9-0.8-1.6-1.8c-1-1.5-1.2-1.7-1.6-1.2
		c-0.5,0.7-3,0.7-3.6,0c-0.4-0.5-0.5-0.5-1.1,0c-1,0.9-1.7,0.4-1.7-1.2C282.4,91.9,282.1,91.8,281.2,92.7 M383.7,175.5
		c-0.1,0.1-0.3,0.5-0.3,0.8c0,0.4,0.1,0.4,0.4,0.1c0.2-0.2,0.3-0.6,0.3-0.8C384,175.4,383.8,175.3,383.7,175.5 M352.1,185
		c0,0.7,0.2,1.2,0.3,1.2c0.2,0,0.3-0.5,0.3-1.2s-0.2-1.2-0.3-1.2C352.3,183.8,352.1,184.4,352.1,185 M281.7,236.4
		c0,0.2,0.1,0.3,0.3,0.3c0.2,0,0.6,0.1,0.9,0.2c0.6,0.2,0.6,0.2,0.1-0.3C282.4,236,281.7,235.9,281.7,236.4 M303,246.9
		c0,0.1,0.3,0.3,0.7,0.5c0.6,0.3,0.6,0.3,0.5-0.2C304,246.8,303,246.5,303,246.9 M330.6,276.7c0.2,0.5,1,0.8,1,0.3
		c0-0.2-0.2-0.4-0.5-0.5C330.6,276.4,330.5,276.4,330.6,276.7 M352.1,283.3c0,0.3,0.2,0.5,0.3,0.5c0.2,0,0.3-0.2,0.3-0.5
		s-0.2-0.5-0.3-0.5C352.3,282.8,352.1,283,352.1,283.3 M384.8,295.9c0,0.2,0.5,0.3,1,0.3c0.6,0,1-0.2,1-0.3c0-0.2-0.5-0.3-1-0.3
		C385.3,295.5,384.8,295.7,384.8,295.9 M427.7,306.2c0,0.2-0.3,0.5-0.8,0.7s-0.6,0.3-0.2,0.3c0.3,0,0.8-0.3,1.2-0.7
		c0.4-0.4,0.5-0.7,0.2-0.7C427.9,305.8,427.7,306,427.7,306.2"/>
	<path id="path31" inkscape:connector-curvature="0" class="st0" d="M114.4,1.4c-0.2,0.4-0.6,0.6-0.8,0.4c-0.3-0.2-0.3,0-0.2,0.5
		c0.2,0.9-0.8,1-2.2,0.3c-0.9-0.5-0.9-0.5-1.3,1.2c-0.3,1.2-0.6,1.6-0.9,1.5s-0.5,0-0.5,0.2s-0.5,0.4-1,0.4c-0.6,0-1-0.2-1-0.3
		c0-0.2-0.3-0.3-0.7-0.3c-0.4,0-0.8-0.3-0.9-0.6c-0.1-0.5-0.5-0.6-1.5-0.6c-0.7,0-1.3-0.1-1.3-0.2c0-0.2-0.2-0.3-0.4-0.3
		c-0.2,0-0.7-0.3-1-0.7c-0.7-0.9-0.9-0.8-1,0.4c-0.1,1.5,0,1.8,0.6,1.7c1.1-0.2,1.1,1-0.1,1.4c-0.5,0.2-0.9,0.5-0.9,0.7
		s-0.2,0.4-0.5,0.4c-0.6,0-0.7,0.6-0.1,0.8c0.7,0.2,1.3,2.6,1,3.8c-0.2,0.7-0.2,1.4,0.1,2.1c0.3,0.7,0.3,1.1,0,1.4
		c-0.2,0.2-0.4,0.8-0.4,1.2c0,0.4-0.2,0.9-0.5,1s-0.5,0.4-0.5,0.7c0,0.3,0.2,0.5,0.5,0.5s0.5,0.1,0.5,0.2c0,0.5-2.2,2.2-2.8,2.2
		c-0.4,0-0.8,0.3-1,0.8c-0.5,1.2-2,2.4-2.6,2.2c-1.4-0.5-3,0.7-2.2,1.7c0.2,0.2,0.3,1,0.3,1.8c-0.2,3.8,0,5.9,0.7,5.9
		c0.4,0,0.7,0.1,0.7,0.3c0,0.6,3.8,1.2,5.1,0.7c1.3-0.5,3-0.2,3.4,0.5c0.1,0.3,0.9,0.7,1.6,1l1.4,0.5l-0.1,2.9c0,1.6-0.2,2.9-0.4,3
		c-0.6,0.2-0.4,2,0.2,2.3c1,0.4,2.2-0.2,2.4-1.2c0.3-1.2,0.7-1.3,4-1.4c2.4,0,2.7-0.1,3.2-0.9c1.1-1.7,6.3-1.1,7.3,1
		c0.4,0.8,0.7,0.9,3,1.2c1.4,0.1,2.8,0.5,3,0.7c0.3,0.3,0.6,0.5,0.8,0.5c0.5,0,0.2,4.9-0.3,5.1c-0.2,0.1-0.4,0.7-0.4,1.4
		c0,2.3-0.3,2.8-1.7,2.8c-1.2,0-2.1,1-2.1,2.3c0,0.2-0.2,0.4-0.3,0.4c-0.2,0-0.3,0.4-0.3,0.9s0.2,0.9,0.4,0.9c0.3,0,0.3,0.1,0,0.3
		c-0.2,0.1-0.6,0.8-0.8,1.5c-0.2,0.7-0.6,1.3-0.7,1.3c-0.6,0-0.8,3.9-0.3,4.3c0.3,0.2,0.7,0.8,1,1.4c0.7,1.4,1.4,1.9,2.8,1.9
		c2.5,0,3.7,2.1,3,5.1c-0.2,1-0.6,1.8-0.7,1.8c-0.2,0-0.3,0.5-0.3,1c0,0.6,0.1,1,0.3,1c1.5,0,1.5,8,0,8.4c-0.4,0.1-0.7,0.5-0.7,0.9
		s-0.2,0.7-0.5,0.7c-0.8,0-1.6,1-1.6,1.9c0,1.3-1.4,2.6-2.8,2.6c-0.7,0-1.5,0.3-2,0.7c-1.2,1-3.4,0.2-3.4-1.3c0-0.2-0.3-0.4-0.7-0.4
		c-0.4,0-0.8-0.3-0.9-0.8c-0.4-1.6-3.8-1.2-4.6,0.5c-0.2,0.5-0.9,1.2-1.4,1.4c-0.6,0.2-1,0.6-1,0.7s-0.5,0.9-1.2,1.6
		c-1.3,1.5-1.5,1.9-0.6,2.2c0.5,0.2,0.5,0.8,0.5,3.7c-0.1,4.5-0.1,4.7,0.5,4.7c0.3,0,0.9,0.4,1.5,1c0.5,0.5,1.3,1.1,1.7,1.1
		c1.5,0.3,0.7,2.7-1,2.7c-0.4,0-1.2,0.6-1.9,1.4c-0.7,0.8-1.5,1.4-1.8,1.4c-0.4,0-0.8,0.4-1,0.9s-0.6,0.9-0.9,0.9s-0.6,0.2-0.7,0.5
		s-0.5,0.6-0.8,0.7c-1.1,0.3-0.7,5.2,0.5,6.1c0.5,0.4,0.9,0.9,0.9,1.1c0,0.3,0.2,0.5,0.3,0.5c0.2,0,0.3,0.2,0.3,0.5s0.4,0.6,0.8,0.8
		c0.5,0.2,1,0.9,1.3,1.6c0.3,0.8,0.8,1.4,1.4,1.6c0.6,0.2,1,0.8,1.2,1.3c0.1,0.5,0.5,1.2,0.9,1.5s0.7,1,0.7,1.4s0.1,1,0.1,1.3
		s0.1,0.7,0.1,0.9s0.3,0.4,0.5,0.4c0.3,0,0.6,0.4,0.9,0.9c0.2,0.5,0.5,0.9,0.7,0.9s0.4,0.5,0.4,1c0,0.7-0.2,1-0.5,1
		s-0.5,0.2-0.6,0.3c-0.1,0.2-1,0.4-2.2,0.4l-2.1,0.1l0.1-1c0.1-1.1-0.5-3-1.2-3.4c-0.2-0.2-0.4-0.6-0.4-0.9c0-0.4-0.1-0.7-0.3-0.7
		c-1,0-2.6-2.3-2.8-3.9c-0.2-2.2-1.1-2.6-4.8-1.9c-1.8,0.3-2.6,0.3-2.9,0.1c-0.2-0.2-0.7-0.4-1-0.4s-0.6-0.1-0.6-0.3
		c0-0.1-0.3-0.5-0.7-0.7c-0.7-0.5-5.2,0.1-5.2,0.7c0,0.1-0.5,0.3-1.2,0.3s-1.2-0.1-1.2-0.3c0-0.1-0.6-0.5-1.4-0.7s-1.6-0.7-2-1
		c-0.3-0.3-1.3-1.1-2.1-1.9c-1.5-1.4-2.1-1.7-2.1-1c0,0.2-0.2,0.3-0.5,0.3s-0.5-0.1-0.5-0.3c0-1-2.8-1.2-3.6-0.3
		c-0.5,0.7-1.1,0.9-1.8,0.9c-0.6,0-1.1,0.2-1.1,0.3c0,0.2,0.3,0.3,0.7,0.3c0.4,0,0.7,0.2,0.7,0.3c0,0.2,0.2,0.3,0.5,0.3
		c0.7,0,1.6,1.3,1.6,2.3c0,0.8,0.6,1.2,1.8,1.2c0.4,0,0.8,0.3,0.9,0.6c0.6,1.4,2.9,2.6,2.9,1.4c0-0.6,1.2-1.6,1.9-1.6
		c0.4,0,0.5,0.4,0.5,1.9v1.9h1.2c1.2,0,1.2,0,1.2-1.4c0-1.1,0.1-1.4,0.7-1.4c0.4,0,0.7,0.2,0.7,0.4c0,0.5,0.8,1.2,1.6,1.5
		c0.8,0.2,1.3,2.1,0.9,3.1c-0.2,0.6,0.5,2.6,0.9,2.6c0.2,0,0.3,0.3,0.3,0.7s0.2,0.8,0.3,0.9c0.2,0.1,0.3,1,0.3,1.9s0.2,1.9,0.3,2.1
		c0.2,0.2,0.7,1,1.1,1.6c0.4,0.7,1.1,1.3,1.5,1.3c0.7,0.1,0.8,0.3,0.8,1.6c0,1.5,0,1.5,1.4,1.7c0.8,0.1,1.7,0.5,2.3,1.1
		c0.6,0.6,1.1,0.8,1.5,0.7c1-0.3,2.4,1.2,2.4,2.5c0,0.9,0.1,1.1,0.8,1.1c1.5,0,2.3,0.4,2.5,1.2c0.1,0.5,0.4,0.8,0.6,0.8
		c0.6,0,2.1,1.4,2.4,2.3c0.2,0.6,0.5,0.8,1.4,0.8c0.6,0,1.2,0.2,1.2,0.3c0,0.2,0.4,0.4,0.8,0.5c0.5,0.1,0.9,0.5,1.1,0.9
		c0.1,0.4,0.5,0.7,0.9,0.7c0.9,0,2.4,1.6,2.4,2.6c0,0.8,0.7,1,2.8,0.9c0.3,0,0.7,0.3,0.8,0.8c0.1,0.5,0.4,0.8,0.7,0.8
		c0.3,0,1,0.6,1.7,1.2c1,1.1,1.3,1.2,2.3,1c0.6-0.1,1.4-0.1,1.6,0.1c0.7,0.5,0.3,1.6-0.6,1.7c-0.8,0.1-1,0.9-0.3,1.2
		c0.3,0.2,0.3,0.2,0,0.4c-0.6,0.3-0.5,1.5,0.1,1.5c0.3,0,0.6,0.2,0.7,0.5s0.6,0.7,1,0.9s0.8,0.5,0.8,0.8c0,0.4,0.4,0.5,1.3,0.5
		c1,0,1.5,0.3,2.6,1.4c1.6,1.6,2.2,1.9,4.5,2l1.7,0.1l-0.2-1c-0.2-0.7-0.1-1.1,0.3-1.2c0.3-0.1,0.5-0.5,0.5-0.9
		c0-0.7,0.8-0.9,1.7-0.4c0.3,0.2,0.6,1.4,0.8,2.8c0.4,3,0.2,2.7,2.3,3c1.6,0.2,1.8,0.2,1.8-0.5c0-1.7,0.7-2.5,1.9-2.3
		c0.9,0.2,1.2,0.1,1.6-0.5c0.6-1,2.5-0.5,3.4,0.8c0.2,0.3,1.5-0.5,2.1-1.3c0.1-0.2,0.5-0.1,0.9,0.2c1,0.8,4.8,1.3,6.7,0.8
		c1.4-0.4,2.7,0.1,2.7,0.9c0,0.5,0.2,0.7,0.5,0.5c1-0.4,2.9,1.1,2.9,2.3c0,1,2.7,0.8,2.8-0.2c0.1-0.6,0.4-0.8,1.1-0.9
		c1-0.1,1.1-0.5,0.7-2.9c-0.2-1-0.4-1.3-0.9-1.3c-1.2,0-2.4-1.6-2.3-2.9c0-0.8-0.1-1.2-0.5-1.2c-0.3,0-0.5-0.4-0.5-1s0.2-1,0.3-1
		c0.2,0,0.3-0.2,0.3-0.5s0.2-0.5,0.3-0.5c0.7,0,0.1-2.4-0.7-3.1c-0.7-0.6-0.7-2.8,0-3c0.4-0.1,0.7-0.4,0.7-0.7s0.3-0.6,0.7-0.7
		c0.5-0.1,0.7-0.5,0.7-1.1c0-1.4,0.8-3.1,1.5-3.3c0.4-0.1,0.6-0.4,0.6-0.8c-0.1-1.4,0-1.8,0.7-1.8c0.4,0,0.7,0.1,0.8,0.3
		c0.4,1,2.2,0.7,2.7-0.4c0.3-0.7,0.8-1.4,1.4-1.6c0.5-0.2,1-0.6,1-0.8s0.5-0.6,1.2-0.8c0.6-0.2,1.3-0.6,1.3-0.8
		c0.1-0.3,0.3-0.3,0.5,0.1c0.3,0.4,0.4,0.4,0.9-0.1c1.2-1.2,0.2-3.3-1-2.3c-0.4,0.3-1.1,0.3-3-0.2c-0.3-0.1-0.6-0.5-0.6-0.8
		c0-0.4-0.2-0.7-0.7-0.7c-0.7,0-1.4-1.5-0.9-2s4.7-0.1,5.2,0.5c0.7,0.7,1.6,0.5,1.8-0.4c0.2-0.8,1.7-2.6,2.4-2.6
		c0.2,0,0.5-0.2,0.5-0.5s-0.2-0.5-0.5-0.5s-0.5-0.2-0.5-0.4c0-1-0.9-2.3-1.7-2.5c-1.6-0.4-1.7-0.5-1.7-1.6c0-1,0.1-1.2,0.9-1.3
		c0.7-0.1,1-0.3,1.1-0.9c0.1-0.4,0.3-0.8,0.6-0.8s0.6-0.3,0.8-0.7s0.6-0.7,0.8-0.7c0.3,0,0.4-0.5,0.4-1.9c0-1,0.1-2.1,0.4-2.3
		c0.6-0.6,4.2-0.1,4.2,0.6c0,0.3,0.3,0.5,0.9,0.5c0.5,0,0.9-0.2,0.9-0.5c0-1.4,2.2-0.2,2.6,1.4c0.2,0.9,2.2,2,3.1,1.6
		c0.3-0.1,0.5,0,0.5,0.2s0.1,0.4,0.3,0.4s0.2-0.2,0.1-0.5c-0.1-0.4,0.1-0.7,0.9-0.9c0.6-0.2,1.1-0.5,1.1-0.7c0-0.1,0.3-0.3,0.7-0.3
		s0.7,0.2,0.7,0.3c0,0.2,0.4,0.3,0.9,0.3s0.9-0.2,0.9-0.3c0-0.2,0.8-0.3,1.7-0.3c1.5,0,1.7,0.1,1.5,0.7c-0.2,0.6,0,0.7,1.1,0.7
		c0.7,0,1.2,0.1,1.2,0.3c0,0.3,1.9,1.4,2.5,1.4c0.2,0,0.2-0.2,0.1-0.4c-0.1-0.2,0.1-0.3,0.8-0.1c0.5,0.1,1,0.4,1.1,0.5
		s0.3,0.2,0.6,0.1c0.3-0.1,0.6,0.1,0.7,0.7c0.2,0.8,1.2,1.3,1.2,0.6c0-0.4,2.5-0.4,2.8,0c0.1,0.2,0.1,0.6-0.1,0.8
		c-0.3,0.3-0.2,0.4,0.4,0.4c0.4,0,0.7,0.1,0.7,0.3c0,0.5,1.8,2.1,2.3,2.1c0.2,0,0.4-0.2,0.4-0.5c0-0.7,4-0.7,4.2,0
		c0.2,0.5,1.6,0.7,2.1,0.3c0.4-0.4,1.3-0.4,1.3-0.1c0,0.2,0.2,0.3,0.5,0.3s0.6,0.2,0.7,0.5c0.2,0.6,1.7,0.7,2,0.2
		c0.1-0.2,0.6-0.4,1.1-0.5s1.1-0.4,1.2-0.6c0.2-0.3,0.3-0.3,0.3,0c0,0.2,0.4,0.4,0.9,0.4c0.9,0,2.2-0.9,2.2-1.6c0-0.6,0.5-0.9,2-1
		c2.1-0.2,4-0.6,4.4-1.1c0.2-0.2,0.6-0.5,0.8-0.5c0.2-0.1,0.4-1.1,0.5-2.3c0.1-1.8,0.2-2.2,0.7-2.3c0.7-0.1,0.8-0.8,0.2-1.8
		c-0.3-0.5-0.2-0.7,0.2-0.8c0.3-0.1,0.5-0.4,0.5-0.6c0-0.7,1.4-2,2-1.8c0.3,0.1,0.5,0,0.4-0.3c-0.2-0.8,1.2-2.7,2.2-3.1
		c0.7-0.3,1-0.7,1-1.3c0-1.1,0.3-1.6,1.2-1.8c0.6-0.1,0.7-0.4,0.8-4.5c0.1-4.3,0.1-4.4,0.9-4.7c0.5-0.2,0.8-0.4,0.9-0.6
		c0-0.3,1.7-1.1,2.3-1.1c0.6,0,0.6-0.5-0.2-1.2c-0.4-0.4-0.6-0.9-0.5-1.3c0.2-0.7,0.1-0.7-1.6-0.6c-1.6,0.1-1.9,0-2.8-0.8
		c-0.8-0.7-1.4-1-2.3-1c-0.9,0-1.1-0.1-0.8-0.3c0.4-0.3,0.4-0.3-0.1-0.3c-0.3,0-0.7-0.3-0.8-0.7c-0.1-0.4-0.4-0.7-0.6-0.7
		c-0.2,0-0.2-0.1,0.1-0.3c0.4-0.2,0.3-0.4-0.3-1.1c-0.4-0.4-0.7-1-0.7-1.2s-0.3-0.5-0.7-0.6s-0.7-0.5-0.7-0.9c0-0.5-0.3-0.7-1.2-0.9
		c-1.3-0.2-2.2-1-2.2-2c0-0.3-0.3-0.8-0.6-1c-0.4-0.3-0.5-0.9-0.4-2.1s0-1.7-0.3-1.8c-0.3-0.1-0.5,0-0.5,0.1c0,0.2-0.4,0.1-0.9-0.1
		c-1.3-0.6-1-1.8,0.6-2.4c0.8-0.3,0.8-1.3-0.1-1.3c-0.4,0-0.7-0.2-0.7-0.4c0-0.2-0.1-0.3-0.2-0.2c-0.1,0.1-0.6-0.2-1-0.7
		s-1.2-1.1-1.7-1.4c-0.9-0.5-1.4-1.7-1.3-2.9c0.1-0.4-0.2-0.6-0.6-0.6c-0.4,0-0.8-0.3-1-0.9c-0.2-0.5-0.5-0.9-0.7-0.9
		s-0.4-0.2-0.4-0.5c0-0.7-0.4-0.7-1.7,0.1c-1.1,0.6-2.4,0.3-2.2-0.6c0.5-2,0.5-2.4-0.1-2.4c-0.3,0-0.6-0.2-0.6-0.4
		c0-0.2-0.1-0.8-0.1-1.3s-0.3-1-0.6-1.2s-0.6-0.7-0.6-1s-0.1-0.5-0.3-0.4s-0.7,0-1.3-0.3c-1.2-0.6-2.1-0.7-2.3-0.1
		c-0.3,0.9-1.7-0.1-1.5-1c0.3-1.1-0.5-1.8-1.6-1.6c-0.5,0.1-0.9,0.3-0.9,0.4c-0.1,2.5-4.8,1.6-4.9-0.9c0-0.7-0.2-0.9-1-1
		c-0.5-0.1-1.3-0.5-1.7-0.9c-0.9-1-1.4-1-2.1-0.4c-0.9,0.9-2,1-2.2,0.3c-0.1-0.4-0.3-0.6-0.5-0.5s-0.3-0.1-0.2-0.7
		c0.1-0.6,0-0.9-0.2-0.9s-0.8-0.4-1.3-0.9c-1.1-1-2.1-1.1-2.4-0.2c-0.2,0.7-1.1,0.9-3.7,0.7c-1.2-0.1-2.6-1.2-2.2-1.8
		c0.2-0.2,0-0.3-1.2-0.4c-0.6-0.1-2.5-2.2-2.5-2.7c0.1-1.1-0.1-1.3-1.4-1.3c-0.9,0-1.4-0.2-1.5-0.5s-0.5-0.5-0.9-0.5
		s-0.7,0.2-0.7,0.5c0,0.6-0.4,0.7-0.9,0.1c-0.4-0.4,1.3-2.4,2.1-2.4c0.3,0,0.5-0.3,0.5-0.6s0.2-0.8,0.3-1c0.2-0.2,0.2-0.8,0.1-1.4
		c-0.2-1.2-2.2-1.6-3.2-0.7c-0.3,0.3-0.4,0.3-0.4,0c0-0.7-1-0.4-1.1,0.3s-2,1.6-2,1c0-0.1-0.3-0.4-0.7-0.5c-0.9-0.2-0.9-1.3,0-1.3
		c0.5,0,0.6-0.2,0.5-1.1c-0.2-1.7-0.5-2.4-1-2.4s-1.9-1.2-1.9-1.7c0-0.2-0.2-0.4-0.5-0.5s-0.5-0.3-0.5-0.5c0.1-0.8-0.1-1.5-0.6-1.5
		c-0.3,0-0.5-0.2-0.5-0.5c0-1.1-2.6-1.3-2.8-0.2c-0.3,1.3-2.7,0.5-2.7-1c0-0.4-0.3-0.6-0.9-0.6c-1-0.1-2.5-1.6-2.5-2.6
		c0-0.4-0.3-0.6-0.8-0.6c-0.9,0-2.6-1-2.6-1.5c0-0.6-0.6-0.3-0.8,0.4c-0.1,1-0.9,1.2-1.2,0.4c-0.1-0.3-0.5-0.9-0.8-1.2
		s-0.7-0.8-0.8-1c-0.1-0.3-0.3-0.3-0.6,0.2c-0.8,1.3-3.6,0.5-3.4-1c0.1-0.4-0.3-0.7-1.3-1.1c-0.8-0.3-1.5-0.8-1.7-1
		c-0.2-0.4-0.5-0.3-1.2,0.2c-1.7,1.3-3.5,1-3.5-0.7c0-0.8,0.2-1.4,0.3-1.4c0.5,0,0.4-1.6-0.2-1.8c-0.8-0.3-0.6-0.8,0.8-1.5
		c1.7-0.9,1.9-1.5,0.3-1.5c-1.2,0-1.2,0-1.2-1.5c0-1.3-0.1-1.5-0.7-1.3c-0.8,0.2-2.8-1.6-2.8-2.4c0-0.3-0.3-0.6-0.8-0.6
		c-1.1-0.2-1.1-2,0-2.5c0.9-0.4,1.3-1.2,0.8-1.5c-0.4-0.2-0.6-3-0.3-3.3c0.5-0.5,0.2-1.2-0.5-1.2c-0.4,0-1.1-0.3-1.5-0.7
		c-0.8-0.8-2.1-0.6-1.7,0.2c0.1,0.3-0.1,0.5-0.8,0.5c-0.6,0-1-0.2-1.1-0.5c-0.2-0.7-1.7-0.1-1.7,0.7c0,1.2-1,2.1-1.2,1.2
		c-0.1-0.5-0.5-0.8-1-0.8c-0.4,0-1.2-0.5-1.8-1.2c-0.9-1-1.2-1.2-1.7-0.8c-0.8,0.5-2.5,0-3-0.9c-0.6-1-0.9-1.1-2.7-1
		c-1.2,0.1-1.8,0-2.2-0.5c-0.4-0.4-0.6-0.5-0.7-0.2c-0.1,0.2-0.3,0.4-0.5,0.4s-0.3-0.1-0.1-0.3c0.1-0.2-0.5-0.5-1.4-0.7
		c-0.8-0.2-1.5-0.6-1.5-0.8c0-0.2-0.2-0.1-0.5,0.2c-1.1,1.1-3.2,0-3.2-1.7c0-0.8-0.1-0.8-1.7-0.8c-1.1,0-1.8-0.2-1.9-0.4
		C116.9,0.5,114.9,0.6,114.4,1.4"/>
	<text transform="matrix(1 0 0 1 25.2485 92.1167)" class="st1 st2">Province No. 7</text>
	<text transform="matrix(1 0 0 1 147.4985 113.1167)" class="st1 st2">Karnali</text>
	<text transform="matrix(1 0 0 1 154.9985 199.3667)" class="st1 st2">Province No. 5</text>
	<text transform="matrix(1 0 0 1 247.9985 172.3667)" class="st1 st2">Province No. 6</text>
	<text transform="matrix(1 0 0 1 362.7485 287.8667)" class="st1 st2">Province No. 2</text>
	<text transform="matrix(1 0 0 1 352.2485 228.6167)" class="st1 st2">Province No. 3</text>
	<text transform="matrix(1 0 0 1 476.7485 266.8667)" class="st1 st2">Province No. 1</text>
</g>
<path id="path2426" class="st3" d="M39.7,5.9l-1.6,0.6h-0.5l-0.1-0.3l-0.2-0.4L37,5.5l-0.4-0.2l0.7-0.7L38.4,4L40,3.1L40.6,3l1,0.3
	L43.1,4l3,1.3l2.2,1.3l1.9,0.8l1.2,0.4L52.5,9l1.4,1.8l2.9,1.7l1.3,0.4l0.5,0.1h1.1l1.4-0.4l0.5,0.6l0.7,0.3l0.5,0.3l0.1,0.5
	l0.9,0.1l1-0.2l1.7,0.3l1.3,0.4l1.5,1.3v1l0.5,1.1l-0.1,0.3l-2,0.3L66.5,19L64,19.3l-1.8-0.1l-2.9,0.2l-1.4,0.2l-0.7-0.4L55.8,18
	l-0.9-1l-1.2-1.2l-1.7-1l-0.5-0.6l-0.7-0.9l-1.6-1.5l-2-0.6l-1-0.2l-1-0.7l-0.5-0.9l-0.1-1l-1.3-0.9l-0.7-0.9l-0.5-0.9L39.7,5.9z"/>
</svg>
